<?xml version="1.0" encoding="UTF-8" standalone="no"?>
<svg
   xmlns:dc="http://purl.org/dc/elements/1.1/"
   xmlns:cc="http://creativecommons.org/ns#"
   xmlns:rdf="http://www.w3.org/1999/02/22-rdf-syntax-ns#"
   xmlns:svg="http://www.w3.org/2000/svg"
   xmlns="http://www.w3.org/2000/svg"
   xmlns:sodipodi="http://sodipodi.sourceforge.net/DTD/sodipodi-0.dtd"
   xmlns:inkscape="http://www.inkscape.org/namespaces/inkscape"
   version="1.1"
   x="0px"
   y="0px"
   viewBox="0 0 100 125"
   style="enable-background:new 0 0 100 100;"
   xml:space="preserve"
   id="svg228"
   sodipodi:docname="Blank_pin_65-percent.svg"
   inkscape:version="0.92.4 (unknown)"><metadata
     id="metadata234"><rdf:RDF><cc:Work
         rdf:about=""><dc:format>image/svg+xml</dc:format><dc:type
           rdf:resource="http://purl.org/dc/dcmitype/StillImage" /><dc:title></dc:title></cc:Work></rdf:RDF></metadata><defs
     id="defs232" /><sodipodi:namedview
     pagecolor="#ffffff"
     bordercolor="#666666"
     borderopacity="1"
     objecttolerance="10"
     gridtolerance="10"
     guidetolerance="10"
     inkscape:pageopacity="0"
     inkscape:pageshadow="2"
     inkscape:window-width="1920"
     inkscape:window-height="1017"
     id="namedview230"
     showgrid="false"
     inkscape:zoom="13.344"
     inkscape:cx="39.354923"
     inkscape:cy="99.965417"
     inkscape:window-x="0"
     inkscape:window-y="30"
     inkscape:window-maximized="1"
     inkscape:current-layer="svg228" /><style
     type="text/css"
     id="style216">
	.st0{fill:none;}
	.st1{fill:#FFFFFF;}
</style><path
     style="fill:#0000ff;stroke-width:0.1498801"
     d="M 44.846317,65.205337 C 44.235114,64.244646 30.337278,37.065549 30.086948,36.341395 c -1.528877,-4.422739 -1.303489,-8.794303 0.665445,-12.90677 2.274221,-4.750111 6.617922,-8.092974 11.791126,-9.074314 1.534003,-0.290995 4.536034,-0.290995 6.070037,0 7.215477,1.368753 12.626503,7.30986 13.376948,14.687394 0.241742,2.376537 -0.103417,5.181389 -0.899418,7.308889 -0.283318,0.757236 -14.247561,28.014021 -14.779837,28.848743 -0.155031,0.243122 -0.359504,0.33723 -0.732711,0.33723 -0.373354,0 -0.577485,-0.09401 -0.732221,-0.33723 z M 48.88629,43.586255 c 4.985748,-1.264739 8.735445,-5.132435 9.897804,-10.209279 0.350322,-1.530102 0.352424,-4.365793 0.0043,-5.807046 -1.204067,-4.984965 -4.936925,-8.837008 -9.850759,-10.165278 -1.779748,-0.481088 -4.915984,-0.48742 -6.66628,-0.01346 -4.963101,1.343953 -8.688949,5.173198 -9.903894,10.178737 -0.373836,1.540195 -0.340235,4.413263 0.07126,6.093343 1.225343,5.002876 5.269305,8.967879 10.263365,10.062969 0.510401,0.111921 1.779292,0.210264 2.819758,0.218541 1.55684,0.01238 2.152473,-0.05109 3.364439,-0.358528 z"
     id="path236"
     inkscape:connector-curvature="0" /></svg>