<?xml version="1.0" encoding="UTF-8" standalone="no"?>
<svg
   xmlns:dc="http://purl.org/dc/elements/1.1/"
   xmlns:cc="http://creativecommons.org/ns#"
   xmlns:rdf="http://www.w3.org/1999/02/22-rdf-syntax-ns#"
   xmlns:svg="http://www.w3.org/2000/svg"
   xmlns="http://www.w3.org/2000/svg"
   xmlns:sodipodi="http://sodipodi.sourceforge.net/DTD/sodipodi-0.dtd"
   xmlns:inkscape="http://www.inkscape.org/namespaces/inkscape"
   version="1.1"
   x="0px"
   y="0px"
   viewBox="0 0 100 125"
   style="enable-background:new 0 0 100 100;"
   xml:space="preserve"
   id="svg228"
   sodipodi:docname="Door_pin_65-percent.svg"
   inkscape:version="0.92.4 (unknown)"><metadata
     id="metadata234"><rdf:RDF><cc:Work
         rdf:about=""><dc:format>image/svg+xml</dc:format><dc:type
           rdf:resource="http://purl.org/dc/dcmitype/StillImage" /><dc:title></dc:title></cc:Work></rdf:RDF></metadata><defs
     id="defs232" /><sodipodi:namedview
     pagecolor="#ffffff"
     bordercolor="#666666"
     borderopacity="1"
     objecttolerance="10"
     gridtolerance="10"
     guidetolerance="10"
     inkscape:pageopacity="0"
     inkscape:pageshadow="2"
     inkscape:window-width="1920"
     inkscape:window-height="1017"
     id="namedview230"
     showgrid="false"
     inkscape:zoom="13.344"
     inkscape:cx="39.354923"
     inkscape:cy="99.965417"
     inkscape:window-x="0"
     inkscape:window-y="30"
     inkscape:window-maximized="1"
     inkscape:current-layer="svg228" /><style
     type="text/css"
     id="style216">
	.st0{fill:none;}
	.st1{fill:#FFFFFF;}
</style><path
     style="fill:#0000ff;stroke-width:0.1498801"
     d="M 44.846317,65.205337 C 44.235114,64.244646 30.337278,37.065549 30.086948,36.341395 c -1.528877,-4.422739 -1.303489,-8.794303 0.665445,-12.90677 2.274221,-4.750111 6.617922,-8.092974 11.791126,-9.074314 1.534003,-0.290995 4.536034,-0.290995 6.070037,0 7.215477,1.368753 12.626503,7.30986 13.376948,14.687394 0.241742,2.376537 -0.103417,5.181389 -0.899418,7.308889 -0.283318,0.757236 -14.247561,28.014021 -14.779837,28.848743 -0.155031,0.243122 -0.359504,0.33723 -0.732711,0.33723 -0.373354,0 -0.577485,-0.09401 -0.732221,-0.33723 z M 48.88629,43.586255 c 4.985748,-1.264739 8.735445,-5.132435 9.897804,-10.209279 0.350322,-1.530102 0.352424,-4.365793 0.0043,-5.807046 -1.204067,-4.984965 -4.936925,-8.837008 -9.850759,-10.165278 -1.779748,-0.481088 -4.915984,-0.48742 -6.66628,-0.01346 -4.963101,1.343953 -8.688949,5.173198 -9.903894,10.178737 -0.373836,1.540195 -0.340235,4.413263 0.07126,6.093343 1.225343,5.002876 5.269305,8.967879 10.263365,10.062969 0.510401,0.111921 1.779292,0.210264 2.819758,0.218541 1.55684,0.01238 2.152473,-0.05109 3.364439,-0.358528 z"
     id="path236"
     inkscape:connector-curvature="0" /><g
     style="image-rendering:optimizeQuality;shape-rendering:geometricPrecision;text-rendering:geometricPrecision;fill:#0000ff"
     id="g1232"
     transform="matrix(51.005836,0,0,43.799092,38.037051,19.954651)"><path
       class="fil0"
       d="M 0.278,0.028 0.093,0.089 V 0.378 L 0.278,0.44 Z M 0.12,0.22 c 0,-0.007 0.005,-0.012 0.011,-0.012 0.007,0 0.012,0.005 0.012,0.012 V 0.247 C 0.143,0.254 0.138,0.259 0.131,0.259 0.125,0.259 0.12,0.254 0.12,0.247 Z M 0,0.456 V 0.012 C 0,0.005 0.005,0 0.012,0 h 0.277 v 0 c 0.006,0 0.012,0.005 0.012,0.012 v 0.444 c 0,0.009 -0.005,0.014 -0.016,0.011 L 0.078,0.398 C 0.073,0.396 0.069,0.392 0.069,0.386 V 0.081 c 0,-0.005 0.004,-0.01 0.008,-0.011 L 0.218,0.023 H 0.023 v 0.433 z"
       id="path1230"
       inkscape:connector-curvature="0"
       style="fill:#0000ff;fill-rule:nonzero" /></g><path
     style="fill:#ffffff;stroke-width:0.07494005"
     d="m 43.678964,43.825131 c -0.822348,-0.08176 -1.487673,-0.236234 -2.473022,-0.574171 -4.400103,-1.509064 -7.815343,-5.374993 -8.81184,-9.974687 -0.219045,-1.011084 -0.285855,-3.893691 -0.116041,-5.00674 0.206786,-1.355377 0.862797,-3.137362 1.643004,-4.463048 1.415417,-2.404998 3.347059,-4.192076 5.861016,-5.422378 1.831774,-0.89645 3.08938,-1.208667 5.177065,-1.285277 3.157299,-0.115859 5.567059,0.547002 8.067866,2.219258 2.793506,1.867979 4.838155,4.775527 5.669451,8.062119 0.299116,1.182576 0.397801,3.265052 0.228309,4.817851 -0.341085,3.124855 -2.065297,6.368864 -4.489391,8.446537 -1.7397,1.491085 -3.705602,2.480794 -5.966147,3.003582 -0.805822,0.18636 -1.051311,0.208444 -2.504599,0.225312 -0.886166,0.01029 -1.914718,-0.01148 -2.285671,-0.04836 z M 53.27841,40.2995 c 0.138874,-0.153451 0.14276,-0.427967 0.14276,-10.085923 V 20.2854 l -0.210264,-0.180864 -0.210264,-0.180864 h -7.29237 c -7.264019,0 -7.293137,6.07e-4 -7.489825,0.155319 L 38.02099,20.23431 v 9.849177 9.849178 h 0.599521 0.59952 v -9.479917 -9.479916 l 4.852368,0.0049 4.852368,0.0049 -3.589669,1.032686 c -2.562094,0.737071 -3.618617,1.072277 -3.690797,1.170989 -0.08314,0.1137 -0.101129,1.362156 -0.101129,7.018463 0,6.750697 0.0028,6.882945 0.147974,7.028134 0.08139,0.08139 0.224709,0.167608 0.318495,0.191606 0.09379,0.024 2.49741,0.712733 5.341385,1.530525 2.843975,0.817791 5.30896,1.490337 5.477744,1.494546 0.223421,0.0056 0.345705,-0.03525 0.44964,-0.150093 z"
     id="path1262"
     inkscape:connector-curvature="0" /><path
     style="fill:#ffffff;stroke-width:0.07494005"
     d="M 47.725726,37.907278 C 45.335139,37.2145 43.252551,36.609762 43.097753,36.563416 l -0.28145,-0.08426 0.01916,-6.305668 0.01916,-6.305668 4.571343,-1.296113 c 2.514239,-0.712862 4.613497,-1.296787 4.665018,-1.297611 0.07443,-0.0012 0.09368,1.83873 0.09368,8.953837 0,4.925435 -0.02529,8.951648 -0.05621,8.947141 -0.03091,-0.0045 -2.01214,-0.575012 -4.402728,-1.267791 z m -2.544555,-6.776663 c 0.171326,-0.171326 0.183944,-0.236536 0.183944,-0.950655 0,-0.684061 -0.01757,-0.785409 -0.162943,-0.940157 -0.219702,-0.233862 -0.725806,-0.2423 -0.930808,-0.01552 -0.122133,0.135107 -0.14276,0.276836 -0.14276,0.980904 0,0.774505 0.01042,0.831413 0.176917,0.966175 0.252316,0.204224 0.649145,0.185758 0.87565,-0.04075 z"
     id="path1264"
     inkscape:connector-curvature="0" /></svg>