<?xml version="1.0" encoding="UTF-8" standalone="no"?>
<svg
   xmlns:dc="http://purl.org/dc/elements/1.1/"
   xmlns:cc="http://creativecommons.org/ns#"
   xmlns:rdf="http://www.w3.org/1999/02/22-rdf-syntax-ns#"
   xmlns:svg="http://www.w3.org/2000/svg"
   xmlns="http://www.w3.org/2000/svg"
   xmlns:sodipodi="http://sodipodi.sourceforge.net/DTD/sodipodi-0.dtd"
   xmlns:inkscape="http://www.inkscape.org/namespaces/inkscape"
   version="1.1"
   x="0px"
   y="0px"
   viewBox="0 0 100 125"
   style="enable-background:new 0 0 100 100;"
   xml:space="preserve"
   id="svg228"
   sodipodi:docname="Door2_pin_65-percent.svg"
   inkscape:version="0.92.4 (unknown)"><metadata
     id="metadata234"><rdf:RDF><cc:Work
         rdf:about=""><dc:format>image/svg+xml</dc:format><dc:type
           rdf:resource="http://purl.org/dc/dcmitype/StillImage" /><dc:title></dc:title></cc:Work></rdf:RDF></metadata><defs
     id="defs232" /><sodipodi:namedview
     pagecolor="#ffffff"
     bordercolor="#666666"
     borderopacity="1"
     objecttolerance="10"
     gridtolerance="10"
     guidetolerance="10"
     inkscape:pageopacity="0"
     inkscape:pageshadow="2"
     inkscape:window-width="1920"
     inkscape:window-height="1047"
     id="namedview230"
     showgrid="false"
     inkscape:zoom="13.344"
     inkscape:cx="43.822267"
     inkscape:cy="87.420348"
     inkscape:window-x="1920"
     inkscape:window-y="0"
     inkscape:window-maximized="1"
     inkscape:current-layer="svg228" /><style
     type="text/css"
     id="style216">
	.st0{fill:none;}
	.st1{fill:#FFFFFF;}
</style><path
     style="fill:#0000ff;stroke-width:0.1498801"
     d="M 44.846317,65.205337 C 44.235114,64.244646 30.337278,37.065549 30.086948,36.341395 c -1.528877,-4.422739 -1.303489,-8.794303 0.665445,-12.90677 2.274221,-4.750111 6.617922,-8.092974 11.791126,-9.074314 1.534003,-0.290995 4.536034,-0.290995 6.070037,0 7.215477,1.368753 12.626503,7.30986 13.376948,14.687394 0.241742,2.376537 -0.103417,5.181389 -0.899418,7.308889 -0.283318,0.757236 -14.247561,28.014021 -14.779837,28.848743 -0.155031,0.243122 -0.359504,0.33723 -0.732711,0.33723 -0.373354,0 -0.577485,-0.09401 -0.732221,-0.33723 z M 48.88629,43.586255 c 4.985748,-1.264739 8.735445,-5.132435 9.897804,-10.209279 0.350322,-1.530102 0.352424,-4.365793 0.0043,-5.807046 -1.204067,-4.984965 -4.936925,-8.837008 -9.850759,-10.165278 -1.779748,-0.481088 -4.915984,-0.48742 -6.66628,-0.01346 -4.963101,1.343953 -8.688949,5.173198 -9.903894,10.178737 -0.373836,1.540195 -0.340235,4.413263 0.07126,6.093343 1.225343,5.002876 5.269305,8.967879 10.263365,10.062969 0.510401,0.111921 1.779292,0.210264 2.819758,0.218541 1.55684,0.01238 2.152473,-0.05109 3.364439,-0.358528 z"
     id="path236"
     inkscape:connector-curvature="0" /><path
     style="fill:#0000ff;stroke-width:0.05299062"
     d="M 37.968879,30.446271 V 19.927634 h 7.471677 7.471677 v 10.518637 10.518637 h -7.471677 -7.471677 z m 13.618588,0 v -9.352844 h -6.146911 -6.146912 v 9.352844 9.352844 h 6.146912 6.146911 z"
     id="path687"
     inkscape:connector-curvature="0" /><path
     style="fill:#0000ff;stroke-width:0.05299062"
     d="m 41.129105,31.551206 c -0.09843,-0.03288 -0.297218,-0.168724 -0.44175,-0.301882 -0.330263,-0.304271 -0.442628,-0.649512 -0.352109,-1.081849 0.04662,-0.222651 0.107757,-0.322547 0.331193,-0.54113 0.33215,-0.324936 0.616615,-0.421464 1.122401,-0.380864 1.216393,0.09764 1.60387,1.552355 0.581799,2.184262 -0.222317,0.137449 -0.316795,0.161864 -0.660982,0.170806 -0.220874,0.0057 -0.482122,-0.01647 -0.580552,-0.04934 z"
     id="path689"
     inkscape:connector-curvature="0" /><path
     style="fill:#ffffff;stroke-width:0.05299062"
     d="m 44.672192,43.897066 c -1.34136,-0.06446 -2.148231,-0.198621 -3.1583,-0.525154 -4.172197,-1.348781 -7.487376,-4.688377 -8.815913,-8.880843 -0.417174,-1.316477 -0.528568,-2.183105 -0.530125,-4.124284 -0.0014,-1.71306 0.05958,-2.26169 0.371749,-3.346265 1.093,-3.797381 3.640172,-6.866016 7.156694,-8.621829 1.074071,-0.536288 2.351646,-0.973216 3.342844,-1.143244 1.325887,-0.22744 3.453409,-0.240929 4.854425,-0.03078 1.629051,0.244356 3.45469,0.971711 5.018248,1.999325 2.357859,1.54965 4.160009,3.754954 5.212305,6.378334 0.490861,1.223718 0.727284,2.159237 0.832847,3.295544 0.08123,0.874395 0.03628,3.106115 -0.07674,3.810153 -0.327328,2.038998 -1.266607,4.205484 -2.587019,5.967073 -0.494131,0.65923 -1.562129,1.757944 -2.241676,2.306147 -1.979742,1.597094 -4.602533,2.686916 -6.970856,2.896527 -0.554952,0.04912 -1.611696,0.05758 -2.408483,0.01929 z M 53.018214,30.499262 V 19.927634 H 45.493547 37.968879 V 30.499262 41.07089 h 7.524668 7.524667 z"
     id="path693"
     inkscape:connector-curvature="0" /><path
     style="fill:#ffffff;stroke-width:0.07494005"
     d="m 39.340852,30.445359 v -9.292566 h 6.107614 6.107614 v 9.292566 9.292566 h -6.107614 -6.107614 z m 2.824108,1.119505 c 0.321778,-0.121315 0.692196,-0.519608 0.777351,-0.835848 0.242037,-0.89886 -0.705232,-1.73791 -1.669057,-1.478379 -0.408812,0.110082 -0.874063,0.556994 -0.955034,0.917387 -0.118644,0.528076 0.170905,1.097036 0.687998,1.351907 0.282203,0.139095 0.85053,0.161133 1.158742,0.04493 z"
     id="path724"
     inkscape:connector-curvature="0" /></svg>