<?xml version="1.0" encoding="UTF-8" standalone="no"?>
<svg
   xmlns:dc="http://purl.org/dc/elements/1.1/"
   xmlns:cc="http://creativecommons.org/ns#"
   xmlns:rdf="http://www.w3.org/1999/02/22-rdf-syntax-ns#"
   xmlns:svg="http://www.w3.org/2000/svg"
   xmlns="http://www.w3.org/2000/svg"
   xmlns:sodipodi="http://sodipodi.sourceforge.net/DTD/sodipodi-0.dtd"
   xmlns:inkscape="http://www.inkscape.org/namespaces/inkscape"
   version="1.1"
   x="0px"
   y="0px"
   viewBox="0 0 100 125"
   style="enable-background:new 0 0 100 100;"
   xml:space="preserve"
   id="svg228"
   sodipodi:docname="Elevator_pin_65-percent.svg"
   inkscape:version="0.92.4 (unknown)"><metadata
     id="metadata234"><rdf:RDF><cc:Work
         rdf:about=""><dc:format>image/svg+xml</dc:format><dc:type
           rdf:resource="http://purl.org/dc/dcmitype/StillImage" /><dc:title></dc:title></cc:Work></rdf:RDF></metadata><defs
     id="defs232" /><sodipodi:namedview
     pagecolor="#ffffff"
     bordercolor="#666666"
     borderopacity="1"
     objecttolerance="10"
     gridtolerance="10"
     guidetolerance="10"
     inkscape:pageopacity="0"
     inkscape:pageshadow="2"
     inkscape:window-width="1920"
     inkscape:window-height="1017"
     id="namedview230"
     showgrid="false"
     inkscape:zoom="13.344"
     inkscape:cx="39.354923"
     inkscape:cy="99.965417"
     inkscape:window-x="0"
     inkscape:window-y="30"
     inkscape:window-maximized="1"
     inkscape:current-layer="svg228" /><style
     type="text/css"
     id="style216">
	.st0{fill:none;}
	.st1{fill:#FFFFFF;}
</style><path
     style="fill:#0000ff;stroke-width:0.1498801"
     d="M 44.846317,65.205337 C 44.235114,64.244646 30.337278,37.065549 30.086948,36.341395 c -1.528877,-4.422739 -1.303489,-8.794303 0.665445,-12.90677 2.274221,-4.750111 6.617922,-8.092974 11.791126,-9.074314 1.534003,-0.290995 4.536034,-0.290995 6.070037,0 7.215477,1.368753 12.626503,7.30986 13.376948,14.687394 0.241742,2.376537 -0.103417,5.181389 -0.899418,7.308889 -0.283318,0.757236 -14.247561,28.014021 -14.779837,28.848743 -0.155031,0.243122 -0.359504,0.33723 -0.732711,0.33723 -0.373354,0 -0.577485,-0.09401 -0.732221,-0.33723 z M 48.88629,43.586255 c 4.985748,-1.264739 8.735445,-5.132435 9.897804,-10.209279 0.350322,-1.530102 0.352424,-4.365793 0.0043,-5.807046 -1.204067,-4.984965 -4.936925,-8.837008 -9.850759,-10.165278 -1.779748,-0.481088 -4.915984,-0.48742 -6.66628,-0.01346 -4.963101,1.343953 -8.688949,5.173198 -9.903894,10.178737 -0.373836,1.540195 -0.340235,4.413263 0.07126,6.093343 1.225343,5.002876 5.269305,8.967879 10.263365,10.062969 0.510401,0.111921 1.779292,0.210264 2.819758,0.218541 1.55684,0.01238 2.152473,-0.05109 3.364439,-0.358528 z"
     id="path236"
     inkscape:connector-curvature="0" /><g
     transform="matrix(0.79391487,0,0,0.67698255,-228.48696,-481.81901)"
     id="g352"><g
       id="g350"><polygon
         points="341,760 341,755.001 337,755.001 337,760 338,760 338,766 340,766 340,759.999 "
         id="polygon332" /><path
         inkscape:connector-curvature="0"
         d="m 333,749 v 20 h 24 v -20 z m 23,18 h -22 v -17 h 22 z"
         id="path334" /><rect
         x="338"
         y="752"
         width="2"
         height="2"
         id="rect336" /><polygon
         points="347,760 347,755.001 343,755.001 343,760 344,760 344,766 346,766 346,759.999 "
         id="polygon338" /><rect
         x="344"
         y="752"
         width="2"
         height="2"
         id="rect340" /><polygon
         points="353,760 353,755.001 349,755.001 349,760 350,760 350,766 352,766 352,759.999 "
         id="polygon342" /><rect
         x="350"
         y="752"
         width="2"
         height="2"
         id="rect344" /><polygon
         points="340.5,740 336,745 339,745 339,748 342,748 342,745 345,745 "
         id="polygon346" /><polygon
         points="348,743 345,743 349.5,748 354,743 351,743 351,740 348,740 "
         id="polygon348" /></g></g><path
     style="fill:#0000ff;stroke-width:0.07494005"
     d="M 39.879503,34.686861 V 32.66348 h -0.3747 -0.3747 v -1.648681 -1.648681 h 1.536271 1.536271 v 1.648681 1.648681 h -0.412171 -0.41217 v 2.023381 2.023381 h -0.7494 -0.749401 z"
     id="path411"
     inkscape:connector-curvature="0" /><path
     style="fill:#0000ff;stroke-width:0.07494005"
     d="M 44.675666,34.686861 V 32.66348 h -0.41217 -0.41217 v -1.648681 -1.648681 h 1.573741 1.573741 v 1.648681 1.648681 h -0.412171 -0.41217 v 2.023381 2.023381 h -0.7494 -0.749401 z"
     id="path413"
     inkscape:connector-curvature="0" /><path
     style="fill:#0000ff;stroke-width:0.07494005"
     d="M 49.396889,34.686861 V 32.66348 h -0.3747 -0.3747 v -1.648681 -1.648681 h 1.536271 1.536271 v 1.648681 1.648681 h -0.3747 -0.374701 v 2.023381 2.023381 h -0.78687 -0.786871 z"
     id="path415"
     inkscape:connector-curvature="0" /><path
     style="fill:#0000ff;stroke-width:0.07494005"
     d="m 49.396889,27.979727 v -0.636991 h 0.786871 0.78687 v 0.636991 0.63699 h -0.78687 -0.786871 z"
     id="path417"
     inkscape:connector-curvature="0" /><path
     style="fill:#0000ff;stroke-width:0.07494005"
     d="m 44.675666,27.979727 v -0.636991 h 0.749401 0.7494 v 0.636991 0.63699 h -0.7494 -0.749401 z"
     id="path419"
     inkscape:connector-curvature="0" /><path
     style="fill:#0000ff;stroke-width:0.07494005"
     d="m 39.879503,27.979727 v -0.636991 h 0.749401 0.7494 v 0.636991 0.63699 h -0.7494 -0.749401 z"
     id="path421"
     inkscape:connector-curvature="0" /><path
     style="fill:#0000ff;stroke-width:0.07494005"
     d="m 40.703844,23.485276 v -1.009739 l -1.138291,-0.02069 -1.138292,-0.02069 1.664346,-1.573741 c 0.91539,-0.865557 1.703516,-1.573741 1.75139,-1.573741 0.04788,0 0.834863,0.708184 1.748862,1.573741 l 1.661818,1.573741 -1.113346,0.02069 -1.113346,0.02069 v 1.009739 1.009739 h -1.161571 -1.16157 z"
     id="path423"
     inkscape:connector-curvature="0" /><path
     style="fill:#0000ff;stroke-width:0.07494005"
     d="m 47.246056,22.863042 -1.719576,-1.62792 1.148334,-0.02064 1.148334,-0.02064 v -1.009788 -1.009788 h 1.161571 1.161571 v 1.009788 1.009788 l 1.146722,0.02064 1.146723,0.02064 -1.416145,1.348921 c -0.77888,0.741907 -1.560553,1.474471 -1.737051,1.62792 l -0.320907,0.278999 z"
     id="path425"
     inkscape:connector-curvature="0" /><path
     style="fill:#0000ff;stroke-width:0.07494005"
     d="m 35.907681,31.989019 v -6.744604 h 9.517386 9.517386 v 6.744604 6.744605 h -9.517386 -9.517386 z m 18.285371,-0.29976 v -5.770384 h -8.767985 -8.767986 v 5.770384 5.770384 h 8.767986 8.767985 z"
     id="path427"
     inkscape:connector-curvature="0" /></svg>