<?xml version="1.0" encoding="UTF-8" standalone="no"?>
<svg
   xmlns:dc="http://purl.org/dc/elements/1.1/"
   xmlns:cc="http://creativecommons.org/ns#"
   xmlns:rdf="http://www.w3.org/1999/02/22-rdf-syntax-ns#"
   xmlns:svg="http://www.w3.org/2000/svg"
   xmlns="http://www.w3.org/2000/svg"
   xmlns:sodipodi="http://sodipodi.sourceforge.net/DTD/sodipodi-0.dtd"
   xmlns:inkscape="http://www.inkscape.org/namespaces/inkscape"
   version="1.1"
   x="0px"
   y="0px"
   viewBox="0 0 100 125"
   style="enable-background:new 0 0 100 100;"
   xml:space="preserve"
   id="svg228"
   sodipodi:docname="Elevator_simple_pin2_65-percent.svg"
   inkscape:version="0.92.4 (unknown)"><metadata
     id="metadata234"><rdf:RDF><cc:Work
         rdf:about=""><dc:format>image/svg+xml</dc:format><dc:type
           rdf:resource="http://purl.org/dc/dcmitype/StillImage" /><dc:title></dc:title></cc:Work></rdf:RDF></metadata><defs
     id="defs232" /><sodipodi:namedview
     pagecolor="#ffffff"
     bordercolor="#666666"
     borderopacity="1"
     objecttolerance="10"
     gridtolerance="10"
     guidetolerance="10"
     inkscape:pageopacity="0"
     inkscape:pageshadow="2"
     inkscape:window-width="1920"
     inkscape:window-height="1017"
     id="namedview230"
     showgrid="false"
     inkscape:zoom="13.344"
     inkscape:cx="39.354923"
     inkscape:cy="99.965417"
     inkscape:window-x="0"
     inkscape:window-y="30"
     inkscape:window-maximized="1"
     inkscape:current-layer="svg228" /><style
     type="text/css"
     id="style216">
	.st0{fill:none;}
	.st1{fill:#FFFFFF;}
</style><path
     style="fill:#0000ff;stroke-width:0.1498801"
     d="M 44.846317,65.205337 C 44.235114,64.244646 30.337278,37.065549 30.086948,36.341395 c -1.528877,-4.422739 -1.303489,-8.794303 0.665445,-12.90677 2.274221,-4.750111 6.617922,-8.092974 11.791126,-9.074314 1.534003,-0.290995 4.536034,-0.290995 6.070037,0 7.215477,1.368753 12.626503,7.30986 13.376948,14.687394 0.241742,2.376537 -0.103417,5.181389 -0.899418,7.308889 -0.283318,0.757236 -14.247561,28.014021 -14.779837,28.848743 -0.155031,0.243122 -0.359504,0.33723 -0.732711,0.33723 -0.373354,0 -0.577485,-0.09401 -0.732221,-0.33723 z M 48.88629,43.586255 c 4.985748,-1.264739 8.735445,-5.132435 9.897804,-10.209279 0.350322,-1.530102 0.352424,-4.365793 0.0043,-5.807046 -1.204067,-4.984965 -4.936925,-8.837008 -9.850759,-10.165278 -1.779748,-0.481088 -4.915984,-0.48742 -6.66628,-0.01346 -4.963101,1.343953 -8.688949,5.173198 -9.903894,10.178737 -0.373836,1.540195 -0.340235,4.413263 0.07126,6.093343 1.225343,5.002876 5.269305,8.967879 10.263365,10.062969 0.510401,0.111921 1.779292,0.210264 2.819758,0.218541 1.55684,0.01238 2.152473,-0.05109 3.364439,-0.358528 z"
     id="path236"
     inkscape:connector-curvature="0" /><g
     transform="matrix(0.21837891,0,0,0.18942998,34.569664,-159.60167)"
     id="g246"><g
       transform="translate(5.9921265,958.35431)"
       id="g244"><path
         inkscape:connector-curvature="0"
         d="m 85.996062,0 c 0.248032,0 0.531496,0.07086614 0.779528,0.17716535 0.248031,0.10629921 0.46063,0.2480315 0.637795,0.42519685 0.177165,0.17716535 0.318898,0.38976377 0.425197,0.6377953 0.106299,0.2480315 0.177165,0.496063 0.177165,0.7795275 v 84.01181 c 0,0.248032 -0.07087,0.496063 -0.177165,0.744095 -0.106299,0.248031 -0.248032,0.46063 -0.425197,0.637795 -0.177165,0.212598 -0.389764,0.354331 -0.637795,0.46063 -0.248032,0.106299 -0.531496,0.141732 -0.779528,0.141732 H 1.9842519 c -0.2480314,0 -0.4960629,-0.03543 -0.7440944,-0.141732 C 0.99212597,87.767716 0.77952755,87.625983 0.6023622,87.413385 0.38976378,87.23622 0.24803149,87.023621 0.14173228,86.77559 0.03543307,86.527558 0,86.279527 0,86.031495 V 2.019685 C 0,1.7362205 0.03543307,1.488189 0.14173228,1.2401575 0.24803149,0.99212597 0.38976378,0.77952755 0.6023622,0.6023622 0.77952755,0.42519685 0.99212597,0.28346456 1.2401575,0.17716535 1.488189,0.07086614 1.7362205,0 1.9842519,0 Z M 84.01181,4.003937 H 45.992125 V 84.01181 H 84.01181 Z m -42.023621,0 H 4.003937 V 84.01181 h 37.984252 z"
         style="fill:#000000;fill-opacity:1;fill-rule:evenodd;stroke:none"
         id="path238" /><path
         inkscape:connector-curvature="0"
         d="m 66.01181,18.566929 c 0.283465,0 0.566929,0.07087 0.779528,0.177165 0.248031,0.106299 0.496063,0.248032 0.673228,0.425197 l 11.19685,11.586614 c 0.177166,0.177166 0.318898,0.389764 0.425197,0.637795 0.1063,0.248032 0.141733,0.531497 0.141733,0.779528 0,0.283465 -0.03543,0.531496 -0.141733,0.779528 -0.106299,0.248031 -0.283464,0.460629 -0.46063,0.637795 -0.177165,0.177165 -0.425196,0.318897 -0.673228,0.425197 -0.248031,0.106299 -0.496063,0.141732 -0.744094,0.141732 -0.283465,0 -0.531496,-0.07087 -0.779528,-0.177165 -0.248031,-0.1063 -0.46063,-0.248032 -0.637795,-0.46063 l -7.759843,-8.007874 v 41.952755 c 0,0.248032 -0.03543,0.531496 -0.141732,0.779528 -0.106299,0.248031 -0.248031,0.46063 -0.425197,0.637795 -0.177165,0.212598 -0.425197,0.354331 -0.673228,0.46063 -0.248032,0.106299 -0.496063,0.141732 -0.744095,0.141732 -0.283464,0 -0.531496,-0.03543 -0.779527,-0.141732 -0.248032,-0.106299 -0.496063,-0.248032 -0.673229,-0.46063 -0.177165,-0.177165 -0.318897,-0.389764 -0.425196,-0.637795 -0.1063,-0.248032 -0.141733,-0.531496 -0.141733,-0.779528 V 25.511811 l -7.724409,8.007874 c -0.212598,0.212598 -0.425197,0.35433 -0.673228,0.46063 -0.212599,0.106299 -0.496063,0.177165 -0.744095,0.177165 -0.283464,0 -0.531496,-0.03543 -0.779527,-0.141732 -0.248032,-0.07087 -0.46063,-0.248032 -0.673229,-0.425197 -0.177165,-0.177166 -0.35433,-0.389764 -0.425197,-0.637795 -0.106299,-0.248032 -0.177165,-0.496063 -0.177165,-0.779528 0,-0.248031 0.03543,-0.531496 0.141732,-0.779528 0.1063,-0.248031 0.248032,-0.460629 0.425197,-0.637795 l 11.19685,-11.586614 c 0.177166,-0.177165 0.425197,-0.318898 0.637796,-0.425197 0.248031,-0.106299 0.531496,-0.177165 0.779527,-0.177165 z"
         style="fill:#000000;fill-opacity:1;fill-rule:evenodd;stroke:none"
         id="path240" /><path
         inkscape:connector-curvature="0"
         d="m 22.003937,18.531496 c 0.248031,0 0.496063,0.07087 0.744094,0.177165 0.248032,0.106299 0.46063,0.248032 0.637796,0.425197 0.177165,0.212598 0.318897,0.425197 0.425196,0.673228 0.1063,0.248032 0.141733,0.496063 0.141733,0.779528 v 41.917322 l 7.759842,-8.007874 c 0.177165,-0.177165 0.389764,-0.35433 0.637795,-0.46063 0.248032,-0.106299 0.496063,-0.177165 0.779528,-0.177165 0.248031,0 0.531496,0.03543 0.779527,0.141732 0.248032,0.1063 0.46063,0.248032 0.637796,0.425197 0.212598,0.177166 0.35433,0.425197 0.46063,0.637796 0.106299,0.248031 0.177165,0.531496 0.177165,0.779527 0,0.283465 -0.07087,0.531496 -0.177165,0.779528 -0.07087,0.248031 -0.248032,0.46063 -0.425197,0.673228 l -11.19685,11.551181 c -0.177166,0.212598 -0.389764,0.354331 -0.637796,0.46063 -0.248031,0.106299 -0.531496,0.141732 -0.779527,0.141732 -0.283465,0 -0.531496,-0.03543 -0.779528,-0.141732 -0.248031,-0.106299 -0.496063,-0.248032 -0.673228,-0.46063 L 9.3543306,57.295275 C 9.1417322,57.082677 8.9999999,56.870078 8.8937007,56.622047 8.8228345,56.374015 8.7519684,56.125984 8.7519684,55.842519 c 0,-0.248031 0.070866,-0.531496 0.1771654,-0.779527 0.1062992,-0.212599 0.2480315,-0.46063 0.4251968,-0.637796 0.2125984,-0.177165 0.4251969,-0.318897 0.6732284,-0.425197 0.248031,-0.106299 0.531496,-0.141732 0.779527,-0.141732 0.248032,0.03543 0.531497,0.07087 0.779528,0.177165 0.248032,0.1063 0.46063,0.283465 0.637795,0.46063 l 7.72441,8.007874 V 20.586614 c 0,-0.283465 0.07087,-0.531496 0.141732,-0.779528 0.106299,-0.248031 0.283465,-0.496063 0.46063,-0.673228 0.177165,-0.177165 0.425197,-0.354331 0.673228,-0.46063 0.248032,-0.07087 0.496063,-0.141732 0.779528,-0.141732 z"
         style="fill:#000000;fill-opacity:1;fill-rule:evenodd;stroke:none"
         id="path242" /></g></g><path
     style="fill:#0000ff;stroke-width:0.07494005"
     d="m 36.046694,38.446698 c -0.113789,-0.125736 -0.124025,-0.802619 -0.124025,-8.201686 v -8.06464 l 0.166555,-0.11666 c 0.148554,-0.104051 1.163188,-0.116659 9.388301,-0.116659 8.225112,0 9.239747,0.01261 9.388301,0.116659 l 0.166555,0.11666 v 8.124109 c 0,7.955371 -0.003,8.12572 -0.144954,8.201686 -0.09768,0.05228 -3.173151,0.07758 -9.430831,0.07758 -8.900834,0 -9.29102,-0.0057 -9.409902,-0.137046 z m 9.018661,-8.14383 v -7.606414 h -4.159173 -4.159173 v 7.606414 7.606415 h 4.159173 4.159173 z m 9.217626,0 v -7.606414 h -4.196643 -4.196643 v 7.606414 7.606415 h 4.196643 4.196643 z"
     id="path287"
     inkscape:connector-curvature="0" /><path
     style="fill:#0000ff;stroke-width:0.07494005"
     d="m 39.277997,33.96759 c -1.60163,-1.436725 -1.584214,-1.415837 -1.364064,-1.635987 0.259435,-0.259435 0.484487,-0.151541 1.395665,0.669107 0.48052,0.432779 0.893005,0.786871 0.916634,0.786871 0.02363,0 0.04296,-1.819131 0.04296,-4.042514 v -4.042513 l 0.166554,-0.116659 c 0.205713,-0.144087 0.28937,-0.145906 0.474848,-0.01032 0.14008,0.102396 0.146856,0.256931 0.182938,4.172121 l 0.03747,4.065785 0.893674,-0.799819 c 0.668939,-0.598685 0.944601,-0.799818 1.09619,-0.799818 0.237401,0 0.392353,0.156683 0.357765,0.361764 -0.03677,0.218048 -2.600491,2.485957 -2.810204,2.485957 -0.114399,0 -0.574049,-0.361646 -1.39043,-1.093971 z"
     id="path289"
     inkscape:connector-curvature="0" /><path
     style="fill:#0000ff;stroke-width:0.07494005"
     d="m 50.001839,34.937688 c -0.08329,-0.100322 -0.109976,-0.88986 -0.140321,-4.152461 l -0.03747,-4.028586 -0.861811,0.779716 c -0.473996,0.428844 -0.939046,0.800773 -1.033445,0.82651 -0.198324,0.05407 -0.465356,-0.14556 -0.465356,-0.347896 0,-0.109961 2.362221,-2.316124 2.670527,-2.494101 0.0579,-0.03343 0.1747,-0.03874 0.259548,-0.01181 0.142954,0.04537 2.461588,2.079592 2.671694,2.343972 0.140822,0.177199 0.114162,0.297168 -0.09674,0.43536 -0.26217,0.17178 -0.364697,0.112504 -1.361419,-0.787102 -0.461949,-0.41694 -0.858195,-0.758072 -0.880545,-0.758072 -0.02235,0 -0.04064,1.836718 -0.04064,4.081596 0,3.958657 -0.0044,4.083932 -0.144953,4.159173 -0.21137,0.113121 -0.421701,0.09506 -0.539066,-0.0463 z"
     id="path291"
     inkscape:connector-curvature="0" /><path
     style="fill:#ffffff;stroke-width:0.07494005"
     d="m 43.678964,43.825131 c -0.822348,-0.08176 -1.487673,-0.236234 -2.473022,-0.574171 -4.400103,-1.509064 -7.815343,-5.374993 -8.81184,-9.974687 -0.219045,-1.011084 -0.285855,-3.893691 -0.116041,-5.00674 0.206786,-1.355377 0.862797,-3.137362 1.643004,-4.463048 1.415417,-2.404998 3.347059,-4.192076 5.861016,-5.422378 1.831774,-0.89645 3.08938,-1.208667 5.177065,-1.285277 3.157299,-0.115859 5.567059,0.547002 8.067866,2.219258 2.793506,1.867979 4.838155,4.775527 5.669451,8.062119 0.299116,1.182576 0.397801,3.265052 0.228309,4.817851 -0.341085,3.124855 -2.065297,6.368864 -4.489391,8.446537 -1.7397,1.491085 -3.705602,2.480794 -5.966147,3.003582 -0.805822,0.18636 -1.051311,0.208444 -2.504599,0.225312 -0.886166,0.01029 -1.914718,-0.01148 -2.285671,-0.04836 z m 11.271486,-5.297592 0.159493,-0.131145 -0.02005,-8.166255 -0.02005,-8.166255 -0.18735,-0.09478 c -0.24794,-0.125433 -18.381366,-0.14226 -18.709873,-0.01736 -0.115191,0.0438 -0.234901,0.119673 -0.266021,0.168615 -0.03112,0.04894 -0.0571,3.737592 -0.05773,8.196998 l -0.0011,8.108011 0.166554,0.11666 c 0.148575,0.104064 1.171097,0.116659 9.471614,0.116659 8.751242,0 9.314552,-0.0078 9.464553,-0.131145 z"
     id="path338"
     inkscape:connector-curvature="0" /><path
     style="fill:#ffffff;stroke-width:0.07494005"
     d="m 36.821949,30.265398 v -7.568944 h 4.084233 4.084233 v 7.568944 7.568945 h -4.084233 -4.084233 z m 5.395522,3.666038 c 1.12271,-1.002858 1.349083,-1.239264 1.349083,-1.408873 0,-0.269374 -0.126409,-0.383663 -0.424344,-0.383663 -0.203107,0 -0.387658,0.126448 -1.090378,0.747093 l -0.84589,0.747093 -0.03747,-3.976174 -0.03747,-3.976174 -0.182612,-0.147833 c -0.184983,-0.149752 -0.477431,-0.140512 -0.641728,0.02028 -0.04717,0.04616 -0.08883,1.561142 -0.11241,4.08781 l -0.03747,4.014472 -0.844597,-0.758282 C 38.596225,32.25439 38.429269,32.1389 38.215995,32.1389 c -0.256326,0 -0.355749,0.07373 -0.448807,0.332821 -0.05919,0.164789 0.256352,0.488424 1.812666,1.859175 0.640835,0.564427 0.970627,0.805605 1.101599,0.805605 0.135608,0 0.557366,-0.330885 1.536018,-1.205065 z"
     id="path340"
     inkscape:connector-curvature="0" /><path
     style="fill:#ffffff;stroke-width:0.07494005"
     d="m 45.964635,30.265398 v -7.568944 h 4.121703 4.121703 v 7.568944 7.568945 h -4.121703 -4.121703 z m 4.671475,4.734791 c 0.110739,-0.122366 0.125346,-0.544613 0.14276,-4.126764 l 0.0194,-3.990451 0.787522,0.704677 c 0.964215,0.862782 1.064012,0.92199 1.352577,0.802462 0.246762,-0.102212 0.337687,-0.303854 0.228778,-0.507352 -0.09908,-0.185126 -2.528148,-2.360563 -2.71345,-2.430122 -0.240203,-0.09017 -0.446819,0.04153 -1.381432,0.880557 -1.611074,1.446296 -1.694194,1.533422 -1.669059,1.749505 0.02929,0.251839 0.375828,0.435124 0.615885,0.325747 0.09018,-0.04109 0.519351,-0.395608 0.953709,-0.787819 l 0.789743,-0.713111 0.04949,2.702886 c 0.02722,1.486588 0.04949,3.302709 0.04949,4.035828 0,1.19041 0.01402,1.34111 0.131145,1.409327 0.205852,0.119898 0.508392,0.09386 0.643447,-0.05537 z"
     id="path342"
     inkscape:connector-curvature="0" /><path
     style="fill:#ffffff;stroke-width:0.07494005"
     d="m 43.66738,43.822662 c -1.949278,-0.173926 -4.316534,-1.147614 -6.119445,-2.51702 -2.631545,-1.998797 -4.476216,-4.86665 -5.149116,-8.005172 -0.205771,-0.959752 -0.291501,-3.688253 -0.150966,-4.804752 0.23891,-1.898064 1.120922,-4.018643 2.453031,-5.897707 0.586296,-0.827027 2.220534,-2.447183 3.095286,-3.068617 1.458403,-1.036066 3.718628,-2.00935 5.274616,-2.271323 0.980072,-0.16501 2.916249,-0.220143 4.035478,-0.114912 5.09308,0.478856 9.619216,4.197093 11.32276,9.301688 0.38567,1.155644 0.505201,1.891841 0.553392,3.408381 0.07258,2.283923 -0.185643,3.88009 -0.918921,5.680287 -1.641968,4.031031 -5.015167,6.968229 -9.213668,8.022762 -0.41217,0.103524 -1.013194,0.224222 -1.335608,0.268218 -0.665477,0.09081 -2.820065,0.08978 -3.846839,-0.0018 z m 11.316028,-5.304299 c 0.113867,-0.09451 0.123913,-0.763593 0.123913,-8.252965 0,-7.48927 -0.01005,-8.158452 -0.123909,-8.252964 -0.103563,-0.08596 -1.658878,-0.102851 -9.472024,-0.102851 -9.087526,0 -9.352513,0.004 -9.505887,0.14276 l -0.157772,0.14276 v 8.110204 c 0,8.577 -0.01484,8.211825 0.33723,8.299732 0.08243,0.02058 4.317928,0.03264 9.412208,0.0268 7.728887,-0.0089 9.282843,-0.02765 9.386241,-0.113474 z"
     id="path135"
     inkscape:connector-curvature="0" /><path
     style="fill:#ffffff;stroke-width:0.07494005"
     d="m 45.964635,30.265398 v -7.568944 h 4.121703 4.121703 v 7.568944 7.568945 h -4.121703 -4.121703 z m 4.613225,4.764769 c 0.140039,-0.102367 0.146867,-0.256517 0.182938,-4.13044 l 0.03747,-4.024105 0.806103,0.718297 c 0.89616,0.798544 1.048586,0.900881 1.247696,0.837687 0.224401,-0.07122 0.400261,-0.312978 0.347832,-0.478167 -0.04919,-0.154978 -2.426445,-2.319773 -2.715219,-2.472553 -0.107403,-0.05682 -0.22339,-0.0631 -0.33723,-0.01824 -0.208228,0.08205 -2.674618,2.292989 -2.735814,2.452464 -0.0697,0.181643 0.09954,0.453714 0.316032,0.50805 0.252274,0.06332 0.331848,0.01112 1.27879,-0.838903 l 0.756151,-0.678755 0.04933,2.410615 c 0.02713,1.325838 0.04939,3.12482 0.04946,3.997737 1.05e-4,1.342805 0.01825,1.605252 0.117889,1.704886 0.146445,0.146445 0.407066,0.151421 0.598579,0.01143 z"
     id="path137"
     inkscape:connector-curvature="0" /><path
     style="fill:#ffffff;stroke-width:0.07494005"
     d="m 36.821949,30.265398 v -7.568944 h 4.084233 4.084233 v 7.568944 7.568945 h -4.084233 -4.084233 z m 4.241604,4.655366 c 0.346834,-0.256014 2.183571,-1.89709 2.371856,-2.11919 0.173555,-0.204726 0.16686,-0.488407 -0.01381,-0.585098 -0.324179,-0.173495 -0.497243,-0.08803 -1.362391,0.672829 l -0.853267,0.750405 -0.03911,-3.991562 c -0.02151,-2.195359 -0.0468,-3.999216 -0.05621,-4.00857 -0.0094,-0.0094 -0.101597,-0.07238 -0.204883,-0.140054 -0.158307,-0.103726 -0.223023,-0.108453 -0.41217,-0.03011 -0.123408,0.05112 -0.230663,0.09728 -0.238344,0.102584 -0.0077,0.0053 -0.03297,1.8284 -0.0562,4.051324 l -0.04224,4.041681 -0.850378,-0.763054 c -0.703863,-0.631578 -0.89173,-0.763049 -1.09038,-0.763049 -0.292897,0 -0.419856,0.115306 -0.419856,0.381319 0,0.163717 0.186047,0.368316 0.992956,1.091975 1.520396,1.363535 1.715949,1.524307 1.854073,1.524307 0.07045,0 0.259606,-0.09708 0.420354,-0.215737 z"
     id="path139"
     inkscape:connector-curvature="0" /></svg>