<?xml version="1.0" encoding="UTF-8"?>
<svg enable-background="new 0 0 100 100" version="1.1" viewBox="0 0 100 125" xml:space="preserve" xmlns="http://www.w3.org/2000/svg" xmlns:cc="http://creativecommons.org/ns#" xmlns:dc="http://purl.org/dc/elements/1.1/" xmlns:rdf="http://www.w3.org/1999/02/22-rdf-syntax-ns#"><metadata><rdf:RDF><cc:Work rdf:about=""><dc:format>image/svg+xml</dc:format><dc:type rdf:resource="http://purl.org/dc/dcmitype/StillImage"/><dc:title/></cc:Work></rdf:RDF></metadata><style type="text/css">
	.st0{fill:none;}
	.st1{fill:#FFFFFF;}
</style><g stroke-width=".65"><path d="m50 26c-9.2 0-17 7.4-17 17 0 2.4 0.52 4.6 1.4 6.7l14 28c0.39 0.78 1.4 0.78 1.8 0l14-28c0.91-2 1.4-4.3 1.4-6.7 0-9.2-7.4-17-17-17zm0 30c-7.4 0-13-6-13-13s6-13 13-13 13 6 13 13-6 13-13 13z"/><path d="m54 48c-0.78 2-2.7 3.4-5 3.4-3 0-5.4-2.4-5.4-5.4 0-2.1 1.2-3.9 3-4.8l-0.32-1.8c-2.5 1-4.4 3.6-4.4 6.5 0 3.9 3.2 7.1 7.1 7.1 2.3 0 4.3-1.1 5.6-2.7 0-0.065-0.065-0.13-0.065-0.13z"/><path d="m60 49c-0.13-0.58-0.78-0.98-1.4-0.84l-1.2 0.26-1.3-5.2c-0.13-0.52-0.58-0.84-1.1-0.84h-4.9l-0.26-1.3h3.2c0.65 0 1.1-0.52 1.1-1.1 0-0.65-0.52-1.1-1.1-1.1h-3.7l-0.52-2.5c0.72-0.32 1.2-1 1.2-1.9 0-1.2-0.91-2.1-2.1-2.1s-2.1 0.91-2.1 2.1c0 0.52 0.2 1 0.52 1.4l1.6 7.9c0.13 0.52 0.58 0.91 1.1 0.91h5l1.4 5.4c0.13 0.52 0.58 0.84 1.1 0.84h0.26l2.3-0.52c0.58-0.2 0.98-0.78 0.84-1.4z"/></g><g fill="#00f" stroke-width=".15"><path d="m49 77c-0.61-0.96-15-28-15-29-1.5-4.4-1.3-8.8 0.67-13 2.3-4.8 6.6-8.1 12-9.1 1.5-0.29 4.5-0.29 6.1 0 7.2 1.4 13 7.3 13 15 0.24 2.4-0.1 5.2-0.9 7.3-0.28 0.76-14 28-15 29-0.16 0.24-0.36 0.34-0.73 0.34-0.37 0-0.58-0.094-0.73-0.34zm4-22c5-1.3 8.7-5.1 9.9-10 0.35-1.5 0.35-4.4 0.0043-5.8-1.2-5-4.9-8.8-9.9-10-1.8-0.48-4.9-0.49-6.7-0.013-5 1.3-8.7 5.2-9.9 10-0.37 1.5-0.34 4.4 0.071 6.1 1.2 5 5.3 9 10 10 0.51 0.11 1.8 0.21 2.8 0.22 1.6 0.012 2.2-0.051 3.4-0.36z"/><path d="m56 50c-0.2-0.22-0.5-1.1-0.86-2.6-0.3-1.2-0.62-2.5-0.7-2.8l-0.15-0.56h-2.7c-2.5 0-2.8-0.021-3-0.3-0.19-0.21-0.51-1.5-1.1-4.3-0.44-2.2-0.9-4.2-1-4.4-0.29-0.51-0.29-1.5-0.0011-2.1 0.45-0.86 1.8-1.2 2.7-0.66 1.2 0.7 1.2 2.5 0.1 3.3l-0.38 0.28 0.51 2.5h1.9c2 0 2.5 0.12 2.8 0.69 0.18 0.39 0.1 0.74-0.25 1.1-0.19 0.22-0.5 0.26-2.1 0.26h-1.9l0.093 0.56c0.051 0.31 0.094 0.65 0.095 0.75 0.0013 0.14 0.65 0.19 2.8 0.19 2.7 0 2.8 0.0062 3 0.35 0.15 0.19 0.57 1.5 0.93 3l0.66 2.7 0.43-0.09c0.24-0.049 0.62-0.13 0.84-0.18 0.96-0.2 1.7 1.1 0.95 1.8-0.32 0.29-2.2 0.83-2.9 0.83-0.29 0.0016-0.57-0.12-0.77-0.33z"/><path d="m47 53c-1.2-0.24-2.7-1.1-3.7-2.1-1.4-1.5-1.9-2.8-1.9-4.8 0.0056-2.6 1.4-4.9 3.6-6.1l0.6-0.33 0.3 1.6-0.49 0.3c-0.73 0.45-1.5 1.4-2 2.4-0.34 0.73-0.39 1-0.39 2.3 0.0074 1.7 0.3 2.5 1.4 3.7 2.5 2.7 7 2.1 8.7-1.2l0.22-0.43 0.5 2.2-0.76 0.7c-1.7 1.5-3.9 2.2-6.1 1.8z"/></g></svg>
