<?xml version="1.0" encoding="UTF-8"?>
<!-- Created with Inkscape (http://www.inkscape.org/) -->
<svg width="100" height="125" version="1.1" viewBox="0 0 100 125" xmlns="http://www.w3.org/2000/svg" xmlns:cc="http://creativecommons.org/ns#" xmlns:dc="http://purl.org/dc/elements/1.1/" xmlns:rdf="http://www.w3.org/1999/02/22-rdf-syntax-ns#">
 <metadata>
  <rdf:RDF>
   <cc:Work rdf:about="">
    <dc:format>image/svg+xml</dc:format>
    <dc:type rdf:resource="http://purl.org/dc/dcmitype/StillImage"/>
    <dc:title/>
   </cc:Work>
  </rdf:RDF>
 </metadata>
 <path d="m0 62v-62h100v125h-100z" fill="#fefefe"/>
 <path d="m44 64c-0.83-1.3-4.5-8.3-8.2-16-6.3-13-6.7-14-6.3-19 1.4-16 21-21 30-7.3 4.2 6.3 3.3 11-5.5 29-4.3 8.5-8 16-8.4 16-0.36 0-1.3-1-2.2-2.3zm9.3-23c6.3-4.3 7.4-13 2.4-19-5-5.9-13-6.1-19-0.38-3 3-3.4 4-3.4 8.6 0 4.3 0.52 5.9 2.8 8.5 4.3 5.1 12 6.1 17 2.2zm-14-3.1c-0.35-1.1-1.1-2-1.6-2-0.51 0-0.93-2.7-0.93-6 0-4.7 0.33-6 1.5-6 0.83 0 1.5 0.89 1.5 2 0 1.8 0.67 2 6.5 2s6.5-0.21 6.5-2c0-1.1 0.67-2 1.5-2 2.2 0 2.2 12 0 12-0.82 0.32-1.5 1.3-1.5 2.1 0 1.2-1.3 1.5-6.4 1.5-5.6 0-6.5-0.27-7.1-2zm10-2.5c0-1-1.1-1.5-3.5-1.5s-3.5 0.45-3.5 1.5 1.1 1.5 3.5 1.5 3.5-0.45 3.5-1.5zm-8.8-12c0.31-3.2 0.4-3.2 5.3-3.2s5 0.058 5.3 3.2l0.31 3.2h-11z" fill="#cfcffe"/>
 <path d="m37 51c-8.8-17-10-22-7-28 0.96-2 3.3-4.9 5.3-6.4 3-2.3 4.5-2.7 9.7-2.7 5.2 0 6.7 0.43 9.9 2.9 4.4 3.4 6.6 7.9 6.6 14 0 3.2-1.7 7.4-7.1 18-3.9 7.6-7.7 15-8.3 16-1.1 1.5-2.3-0.19-9.1-13zm15-10c3.9-2.8 6.4-8.6 5.5-13-0.89-4.7-6.1-9.9-11-11-7.6-1.4-15 5.1-15 13 0 11 12 17 20 11zm-15-3.9c-1.9-2.1-2.2-3.6-2-7.7 0.17-2.9 0.83-5.2 1.5-5.4 0.72-0.24 1.2 0.43 1.2 1.6 0 1.8 0.78 2 6.5 2.3 6.2 0.32 6.5 0.24 6.5-2-0.0013-1.4 0.49-2.2 1.2-1.9 1.9 0.62 2.3 12 0.42 12-0.79 0-1.7 0.9-2 2-0.44 1.7-1.4 2-5.9 2-4.5-0.015-5.7-0.43-7.6-2.6zm11-2.3c0-1.6-0.67-2-3.5-2s-3.5 0.38-3.5 2 0.67 2 3.5 2 3.5-0.38 3.5-2zm-8-12c0-3.5 0.039-3.5 4.4-3.5 4.5 0 5.6 0.98 5.6 5.1 0 1.6-0.74 1.9-5 1.9h-5z" fill="#b2b2fe"/>
 <path d="m37 50c-8.9-18-9.6-21-5.8-28 8-14 29-9.4 30 6.9 0.4 4.8-0.069 6.1-7.3 20-4.3 8.2-8.1 15-8.5 16-0.44 0.48-4.4-6.4-8.9-15zm14-7.5c10-5.3 11-18 0.96-24-4.1-2.5-8.4-2.5-12-0.039-9.1 5.5-9.3 17-0.41 23 3.9 2.6 8 2.9 12 0.86zm-12-4.6c-0.29-1.1-1.1-2-1.9-2-1 0-1.4-1.5-1.4-5.5 0-4.2 0.35-5.5 1.5-5.5 0.83 0 1.5 0.89 1.5 2 0 1.8 0.67 2 6.5 2s6.5-0.21 6.5-2c0-1.1 0.67-2 1.5-2 1.2 0 1.5 1.3 1.5 5.5 0 4-0.37 5.5-1.4 5.5-0.76 0-1.6 0.9-1.9 2-0.45 1.7-1.4 2-6.2 2s-5.8-0.3-6.2-2zm11-2.8c-0.23-1.2-1.5-1.8-4.1-2.1-3.2-0.27-3.7-0.019-3.7 1.8 0 1.7 0.63 2.1 4.1 2.1 3.3 0 4-0.32 3.7-1.8zm-8.6-12c0.3-3.1 0.53-3.2 4.3-3.2s4 0.18 4.3 3.2c0.31 3.2 0.3 3.2-4.3 3.2s-4.6-0.0065-4.3-3.2z" fill="#9292fe"/>
 <path d="m37 49c-4.6-9.5-7.7-17-7.7-19 0.011-1.7 1.1-5.1 2.3-7.4 2.6-4.9 9-9 14-9 5.1 0 12 4 14 8.5 3.8 6.8 3.1 10-5.5 27-4.3 8.5-8.2 15-8.8 15-0.58 1e-3 -4.5-7.1-8.8-16zm15-7.1c13-6.8 6.6-26-7.8-25-6.4 0.66-12 6.9-12 13 0 4.6 4.7 11 9 13 3.1 1.1 7.6 0.65 11-1.1zm-13-4.2c-0.29-1.1-1.1-2-1.9-2-1 0-1.4-1.5-1.4-5.5 0-4.2 0.35-5.5 1.5-5.5 0.83 0 1.5 0.89 1.5 2 0 1.8 0.67 2 6.5 2s6.5-0.21 6.5-2c0-1.1 0.67-2 1.5-2 1.2 0 1.5 1.3 1.5 5.5 0 4-0.37 5.5-1.4 5.5-0.76 0-1.6 0.9-1.9 2-0.45 1.7-1.4 2-6.2 2s-5.8-0.3-6.2-2zm11-3c0-1.7-0.67-2-4.5-2s-4.5 0.3-4.5 2 0.67 2 4.5 2 4.5-0.3 4.5-2zm-8.8-11c0.3-3.1 0.53-3.2 4.3-3.2s4 0.18 4.3 3.2c0.31 3.2 0.3 3.2-4.3 3.2s-4.6-0.0065-4.3-3.2z" fill="#7070fe"/>
 <path d="m42 59c-1.9-3.4-5.6-11-8.2-16-4.3-8.9-4.6-10-4-14 1-6.7 7.1-13 14-14 9-1.4 17 5.1 19 15 0.48 3.5-0.39 5.9-7.3 20-4.3 8.8-8.2 16-8.6 16s-2.3-2.8-4.2-6.2zm10-16c9-4.7 9-19 0-24-6.4-3.3-15-0.76-18 5.5-6.3 12 6.4 25 18 18zm-13-4.2c-0.35-0.96-1.2-2.1-2-2.5-2-1.2-1.8-11 0.17-11 0.83 0 1.5 0.89 1.5 2 0 1.8 0.67 2 6.5 2s6.5-0.21 6.5-2c0-1.1 0.67-2 1.5-2 2 0 2.1 9.5 0.17 11-0.73 0.44-1.6 1.6-2 2.5-0.51 1.4-1.8 1.8-6.2 1.8s-5.7-0.37-6.2-1.8zm11-3.2c0-1.7-0.67-2-4.5-2s-4.5 0.3-4.5 2 0.67 2 4.5 2 4.5-0.3 4.5-2zm-9-11c0-2.9 0.17-3 4.5-3s4.5 0.11 4.5 3-0.17 3-4.5 3-4.5-0.11-4.5-3z" fill="#4e4efe"/>
 <path d="m38 51c-8.9-17-9.7-20-6.9-26 2.5-5.5 5.7-8.4 11-9.7 9.2-2.4 19 3.8 20 13 0.68 4.5 0.35 5.5-6.3 19-3.9 7.8-7.7 15-8.5 16-1.3 1.8-2 0.83-9-12zm14-8.5c9-4.7 9-19 0-24-9.1-4.7-20 1.7-20 12-0.01 10 11 17 20 12zm-13-4.8c0-0.77-0.68-1.7-1.5-2-1.1-0.41-1.5-2.1-1.5-5.6 0-3.8 0.37-5 1.5-5 0.83 0 1.5 0.89 1.5 2 0 1.8 0.67 2 6.5 2 5.9 0 6.5-0.19 6.5-2.1 0-4.2 2.5-1.2 2.8 3.4 0.23 3.5-0.083 4.8-1.2 5.3-0.86 0.33-1.6 1.2-1.6 2 0 1-1.6 1.4-6.5 1.4s-6.5-0.35-6.5-1.4zm11-2.5c0.29-1.9-0.14-2.1-4.2-2.1-3.8 0-4.6 0.32-4.6 1.8 0 2.5 0.29 2.7 4.7 2.6 3.1-0.082 3.9-0.5 4.2-2.2zm-8.8-11c0-2.9 0.17-3 4.5-3s4.5 0.11 4.5 3-0.17 3-4.5 3-4.5-0.11-4.5-3z" fill="#3030fe"/>
 <path d="m38 50c-6.2-12-7.5-16-7.5-20 0.013-16 21-21 29-7.3 3.8 6.4 2.8 11-5.8 27-4.3 8.1-7.9 15-8.1 15s-3.8-6.7-7.9-15zm18-10c2.9-3.2 3.3-4.3 3.3-9.2 0-4.9-0.4-6-3.3-9.1-2.8-3-4.2-3.7-8.3-4.1-8.8-0.84-15 4.7-15 13-0.0085 8.7 6 14 15 13 4.7-0.35 5.9-0.88 8.8-4zm-17-2.1c0-0.77-0.68-1.7-1.5-2-1.7-0.66-2.1-9.1-0.5-10 0.55-0.34 1 0.31 1 1.4 0 1.9 0.6 2.1 7 2.1 6.4 0 7-0.17 7-2.1 0-4.2 2.5-1.2 2.8 3.4 0.23 3.5-0.083 4.8-1.2 5.3-0.86 0.33-1.6 1.2-1.6 2 0 1-1.6 1.4-6.5 1.4s-6.5-0.35-6.5-1.4zm11-2.7c0-3-0.11-3-4.2-2.8-3.8 0.28-4.3 0.6-4.6 3.1-0.3 2.6-0.14 2.8 4.2 2.8 4.4 0 4.6-0.094 4.6-3.1zm-9-11c0-2.9 0.17-3 4.5-3s4.5 0.11 4.5 3-0.17 3-4.5 3-4.5-0.11-4.5-3z" fill="#0101fe"/>
</svg>
