<?xml version="1.0" encoding="UTF-8"?>
<!-- Created with Inkscape (http://www.inkscape.org/) -->
<svg width="750" height="750" version="1.1" viewBox="0 0 750 750" xmlns="http://www.w3.org/2000/svg" xmlns:cc="http://creativecommons.org/ns#" xmlns:dc="http://purl.org/dc/elements/1.1/" xmlns:rdf="http://www.w3.org/1999/02/22-rdf-syntax-ns#">
 <metadata>
  <rdf:RDF>
   <cc:Work rdf:about="">
    <dc:format>image/svg+xml</dc:format>
    <dc:type rdf:resource="http://purl.org/dc/dcmitype/StillImage"/>
    <dc:title/>
   </cc:Work>
  </rdf:RDF>
 </metadata>
 <path d="m0 375v-375h750v750h-750z" fill="#fefefe"/>
 <path d="m268 203c-6.3-12-7.6-16-7.6-20 0.013-16 21-21 29-7.4 3.7 6.3 2.9 10-5.2 26-4.1 8-7.7 15-8.2 15-0.44 0.48-4.2-5.9-8.4-14zm18-10c3-3.2 3.3-4.3 3.3-9.3 0-5.2-0.29-5.9-3.9-9.5-3.4-3.4-4.5-3.9-8.5-3.9-8.6 0-15 5.5-15 13-9e-3 8.7 6 14 15 13 4.7-0.35 5.9-0.88 8.8-4zm-17-2.1c0-0.77-0.68-1.7-1.5-2-1.7-0.66-2.1-9.1-0.5-10 0.55-0.34 1 0.31 1 1.4 0 1.9 0.6 2.1 7 2.1 6.4 0 7-0.17 7-2.1 0-4.2 2.5-1.2 2.8 3.4 0.23 3.5-0.083 4.8-1.2 5.3-0.86 0.33-1.6 1.2-1.6 2 0 1-1.6 1.4-6.5 1.4s-6.5-0.35-6.5-1.4zm11-2.6c0-2.9-0.17-3-4.5-3s-4.5 0.11-4.5 3 0.17 3 4.5 3 4.5-0.11 4.5-3zm-9-11c0-2.9 0.17-3 4.5-3s4.5 0.11 4.5 3-0.17 3-4.5 3-4.5-0.11-4.5-3z" fill="#0101fd"/>
</svg>
