<?xml version="1.0" encoding="UTF-8" standalone="no"?>
<svg
   xmlns:dc="http://purl.org/dc/elements/1.1/"
   xmlns:cc="http://creativecommons.org/ns#"
   xmlns:rdf="http://www.w3.org/1999/02/22-rdf-syntax-ns#"
   xmlns:svg="http://www.w3.org/2000/svg"
   xmlns="http://www.w3.org/2000/svg"
   xmlns:sodipodi="http://sodipodi.sourceforge.net/DTD/sodipodi-0.dtd"
   xmlns:inkscape="http://www.inkscape.org/namespaces/inkscape"
   version="1.1"
   x="0px"
   y="0px"
   viewBox="0 0 100 125"
   style="enable-background:new 0 0 100 100;"
   xml:space="preserve"
   id="svg228"
   sodipodi:docname="Restroom_pin_65-percent.svg"
   inkscape:version="0.92.4 (unknown)"><metadata
     id="metadata234"><rdf:RDF><cc:Work
         rdf:about=""><dc:format>image/svg+xml</dc:format><dc:type
           rdf:resource="http://purl.org/dc/dcmitype/StillImage" /><dc:title></dc:title></cc:Work></rdf:RDF></metadata><defs
     id="defs232" /><sodipodi:namedview
     pagecolor="#ffffff"
     bordercolor="#666666"
     borderopacity="1"
     objecttolerance="10"
     gridtolerance="10"
     guidetolerance="10"
     inkscape:pageopacity="0"
     inkscape:pageshadow="2"
     inkscape:window-width="1920"
     inkscape:window-height="1017"
     id="namedview230"
     showgrid="false"
     inkscape:zoom="6.672"
     inkscape:cx="39.354923"
     inkscape:cy="96.99424"
     inkscape:window-x="0"
     inkscape:window-y="30"
     inkscape:window-maximized="1"
     inkscape:current-layer="svg228" /><style
     type="text/css"
     id="style216">
	.st0{fill:none;}
	.st1{fill:#FFFFFF;}
</style><path
     style="fill:#0000ff;stroke-width:0.1498801"
     d="M 44.846317,65.205337 C 44.235114,64.244646 30.337278,37.065549 30.086948,36.341395 c -1.528877,-4.422739 -1.303489,-8.794303 0.665445,-12.90677 2.274221,-4.750111 6.617922,-8.092974 11.791126,-9.074314 1.534003,-0.290995 4.536034,-0.290995 6.070037,0 7.215477,1.368753 12.626503,7.30986 13.376948,14.687394 0.241742,2.376537 -0.103417,5.181389 -0.899418,7.308889 -0.283318,0.757236 -14.247561,28.014021 -14.779837,28.848743 -0.155031,0.243122 -0.359504,0.33723 -0.732711,0.33723 -0.373354,0 -0.577485,-0.09401 -0.732221,-0.33723 z M 48.88629,43.586255 c 4.985748,-1.264739 8.735445,-5.132435 9.897804,-10.209279 0.350322,-1.530102 0.352424,-4.365793 0.0043,-5.807046 -1.204067,-4.984965 -4.936925,-8.837008 -9.850759,-10.165278 -1.779748,-0.481088 -4.915984,-0.48742 -6.66628,-0.01346 -4.963101,1.343953 -8.688949,5.173198 -9.903894,10.178737 -0.373836,1.540195 -0.340235,4.413263 0.07126,6.093343 1.225343,5.002876 5.269305,8.967879 10.263365,10.062969 0.510401,0.111921 1.779292,0.210264 2.819758,0.218541 1.55684,0.01238 2.152473,-0.05109 3.364439,-0.358528 z"
     id="path236"
     inkscape:connector-curvature="0" /><ellipse
     cx="51.54026"
     cy="22.954695"
     id="circle1464"
     rx="2.007051"
     ry="1.7322543"
     style="stroke-width:0.22200228" /><path
     inkscape:connector-curvature="0"
     d="m 56.141495,30.720036 c -0.07097,-0.385884 -0.698489,-3.785838 -0.845452,-4.3559 -0.364657,-1.415668 -1.819464,-1.415668 -2.601113,-1.415668 h -2.309579 c -0.781647,0 -2.236694,0 -2.601112,1.415668 -0.146963,0.569855 -0.77448,3.970016 -0.845452,4.3559 -0.07551,0.410635 0.248761,0.79652 0.724776,0.8619 0.476969,0.066 0.923114,-0.214702 0.998626,-0.625336 0.164646,-0.894486 0.574945,-3.092236 0.757513,-3.961766 v 10.532122 c 0,0.415997 0.390705,0.753002 0.872454,0.753002 0.48175,0 0.872454,-0.337211 0.872454,-0.753002 v -5.27328 h 0.750584 v 5.273075 c 0,0.415996 0.390704,0.753001 0.872454,0.753001 0.48175,0 0.872454,-0.337211 0.872454,-0.753001 V 26.994834 c 0.182568,0.869736 0.592867,3.06728 0.757513,3.96156 0.06834,0.370829 0.438975,0.634823 0.860745,0.634823 0.0454,0 0.09176,-0.0031 0.13812,-0.0095 0.476254,-0.06517 0.800766,-0.451058 0.725015,-0.861692 z"
     id="path1466"
     style="stroke-width:0.22200228" /><rect
     x="45.188622"
     y="21.223471"
     width="0.81247455"
     height="17.056486"
     id="rect1468"
     style="stroke-width:0.22200228" /><ellipse
     cx="39.608833"
     cy="22.955931"
     id="circle1470"
     rx="2.0072899"
     ry="1.7324604"
     style="stroke-width:0.22200228" /><ellipse
     cx="39.608833"
     cy="22.955931"
     id="circle1472"
     rx="2.0072899"
     ry="1.7324604"
     style="stroke-width:0.22200228" /><path
     inkscape:connector-curvature="0"
     d="m 40.791701,24.935887 c 0.788578,0 2.246253,0 2.604698,1.423093 0.119481,0.577486 0.764682,3.980534 0.83637,4.351775 0.07169,0.412491 -0.238963,0.804357 -0.716889,0.866231 -0.477926,0.06187 -0.931956,-0.206246 -1.003645,-0.618736 -0.167274,-0.886855 -0.573511,-3.09368 -0.764682,-3.95991 -0.02389,-0.06187 -0.07169,-0.103123 -0.143377,-0.103123 -0.07169,0 -0.143378,0.06187 -0.143378,0.123748 l 1.194815,6.496727 h -0.90806 v 4.001158 c 0,0.433116 -0.382341,0.763108 -0.884163,0.763108 -0.501823,0 -0.884164,-0.350617 -0.884164,-0.763108 v -4.001158 h -0.740785 v 4.001158 c 0,0.433116 -0.382341,0.763108 -0.884164,0.763108 -0.501822,0 -0.884163,-0.350617 -0.884163,-0.763108 v -4.001158 h -0.90806 l 1.194815,-6.496727 c 0,-0.06187 -0.07169,-0.123748 -0.143378,-0.123748 -0.07169,0 -0.119481,0.04125 -0.143377,0.103123 -0.19117,0.86623 -0.597408,3.073055 -0.764682,3.95991 -0.07169,0.41249 -0.525719,0.68061 -1.003645,0.618736 -0.477926,-0.06187 -0.788578,-0.45374 -0.716889,-0.866231 0.07169,-0.371241 0.716889,-3.774289 0.83637,-4.351775 0.358445,-1.423093 1.81612,-1.423093 2.604698,-1.423093 z"
     id="path1474"
     style="stroke-width:0.22200228" /><path
     style="fill:#0000ff;stroke-width:0.1498801"
     d="m 37.758852,37.970082 c -0.09723,-0.117155 -0.180942,-1.077815 -0.205703,-2.360611 l -0.04175,-2.163064 -0.41217,-0.04743 c -0.226694,-0.02608 -0.408012,-0.127253 -0.402929,-0.22482 0.0051,-0.09757 0.265946,-1.526316 0.579696,-3.174997 0.493052,-2.590866 0.56248,-3.524519 0.237957,-3.199996 -0.04256,0.04256 -0.271629,1.038266 -0.509043,2.21268 -0.237414,1.174415 -0.490362,2.189791 -0.562107,2.256393 -0.309812,0.287601 -0.774442,0.302441 -1.104382,0.03527 l -0.341256,-0.276332 0.41778,-2.237629 c 0.706456,-3.783784 0.653294,-3.736431 4.194775,-3.736431 3.541481,0 3.488319,-0.04735 4.194775,3.736431 l 0.41778,2.237629 -0.33697,0.272862 c -0.841867,0.681702 -1.154936,0.267277 -1.649264,-2.183209 -0.385181,-1.909426 -0.612644,-2.554814 -0.789732,-2.240741 -0.03891,0.06901 0.185381,1.47439 0.498423,3.123071 0.313041,1.648681 0.573325,3.07743 0.578408,3.174997 0.0051,0.09757 -0.176235,0.198736 -0.402928,0.22482 l -0.41217,0.04743 -0.04175,2.163064 c -0.02476,1.282796 -0.108472,2.243456 -0.205702,2.360611 -0.263979,0.318075 -0.979796,0.239999 -1.242849,-0.135561 -0.183763,-0.262359 -0.233319,-0.771696 -0.233319,-2.398081 v -2.064973 h -0.3747 -0.3747 v 2.064973 c 0,1.626385 -0.04956,2.135722 -0.233319,2.398081 -0.263052,0.37556 -0.97887,0.453636 -1.242848,0.135561 z"
     id="path1520"
     inkscape:connector-curvature="0" /><path
     style="fill:#0000ff;stroke-width:0.1498801"
     d="m 38.629787,24.341192 c -0.502312,-0.253301 -0.710497,-0.466396 -0.836493,-0.856222 -0.323206,-0.999982 0.15531,-1.781104 1.301474,-2.124503 0.483886,-0.144976 0.693668,-0.13038 1.265644,0.08806 0.794307,0.303349 1.152784,0.765037 1.152784,1.484688 0,0.734099 -0.267719,1.132031 -0.978819,1.454897 -0.810736,0.368104 -1.095482,0.361089 -1.90459,-0.04692 z"
     id="path1522"
     inkscape:connector-curvature="0" /><path
     style="fill:#0000ff;stroke-width:0.1498801"
     d="m 50.850726,24.446693 c -1.048512,-0.361416 -1.491541,-1.227029 -1.075033,-2.100455 0.709965,-1.488811 3.337046,-1.268147 3.632187,0.305089 0.245049,1.306221 -1.14496,2.28214 -2.557154,1.795366 z"
     id="path1524"
     inkscape:connector-curvature="0" /><path
     style="fill:#0000ff;stroke-width:0.1498801"
     d="m 49.707508,37.919992 c -0.162567,-0.19571 -0.221417,-1.366453 -0.280643,-5.583034 l -0.07494,-5.335395 -0.405797,2.084455 c -0.223189,1.14645 -0.45925,2.133699 -0.524581,2.193886 -0.304133,0.280189 -0.76833,0.286284 -1.103974,0.0145 l -0.35251,-0.285445 0.424939,-2.303456 c 0.233717,-1.266901 0.51898,-2.487791 0.633918,-2.713089 0.35835,-0.702427 0.992047,-0.920247 2.871256,-0.986937 2.326679,-0.08257 3.240869,0.04908 3.798015,0.546954 0.40316,0.360268 0.490869,0.615729 0.883479,2.573237 0.559527,2.789733 0.564364,3.109489 0.04999,3.305054 -0.300204,0.114137 -0.479953,0.09444 -0.749401,-0.0821 -0.194958,-0.127742 -0.35473,-0.247564 -0.355049,-0.266272 -0.0036,-0.210259 -0.779281,-3.936378 -0.830034,-3.98713 -0.03777,-0.03777 -0.06867,2.33209 -0.06867,5.26635 0,5.790406 -0.0022,5.806069 -0.82434,5.806069 -0.762151,0 -0.824341,-0.243915 -0.824341,-3.233127 v -2.762076 h -0.44964 -0.449641 v 2.817745 c 0,1.99174 -0.05272,2.87047 -0.179856,2.997602 -0.260075,0.260076 -0.948466,0.220805 -1.188182,-0.06778 z"
     id="path1526"
     inkscape:connector-curvature="0" /><path
     style="fill:#0000ff;stroke-width:0.1498801"
     d="M 45.230223,29.699405 V 21.23118 h 0.3747 0.3747 v 8.468225 8.468225 h -0.3747 -0.3747 z"
     id="path1528"
     inkscape:connector-curvature="0" /><path
     style="fill:#ffffff;stroke-width:0.1498801"
     d="m 43.356722,43.764747 c -4.963361,-0.783206 -9.29949,-4.710105 -10.745661,-9.73152 -0.294258,-1.021727 -0.341479,-1.529489 -0.340317,-3.659362 0.0013,-2.419194 0.01241,-2.505195 0.509738,-3.951239 1.524706,-4.433323 5.125219,-7.811573 9.527079,-8.938962 1.465163,-0.375253 4.686238,-0.419582 6.240638,-0.08589 5.325327,1.143234 9.752079,6.087054 10.349491,11.558363 0.43358,3.970894 -0.806268,7.763483 -3.463846,10.595598 -1.301202,1.38666 -2.524964,2.297503 -4.077226,3.034668 -1.963002,0.932226 -2.951347,1.153541 -5.376995,1.204044 -1.195294,0.02489 -2.375599,0.01333 -2.622901,-0.0257 z m -4.41161,-5.602389 c 0.266796,-0.142785 0.289907,-0.33396 0.289907,-2.398082 v -2.242929 h 0.3747 0.3747 v 2.242929 c 0,2.064122 0.02311,2.255297 0.289907,2.398082 0.422989,0.226376 1.002995,0.18976 1.273129,-0.08037 0.192349,-0.19235 0.235526,-0.631961 0.235526,-2.398081 v -2.162556 h 0.44964 c 0.247302,0 0.44964,-0.05703 0.44964,-0.126737 0,-0.0697 -0.167974,-1.03081 -0.373275,-2.13579 -0.3932,-2.116298 -0.492956,-3.296961 -0.138088,-1.634355 0.114366,0.535821 0.243556,1.125121 0.28709,1.309555 0.127121,0.538557 0.683909,0.821937 1.236478,0.62931 0.25441,-0.08869 0.504872,-0.271506 0.556583,-0.406264 0.05171,-0.134758 -0.120422,-1.349508 -0.38252,-2.699444 -0.370668,-1.909125 -0.554918,-2.547575 -0.829313,-2.873676 -0.408668,-0.485673 -1.280915,-0.748456 -2.559116,-0.770986 -0.693167,-0.01222 -0.778832,-0.03744 -0.420741,-0.123854 1.081592,-0.26102 1.573741,-0.803382 1.573741,-1.734305 0,-0.334269 -0.105263,-0.758047 -0.233918,-0.941728 -0.745978,-1.065032 -2.832948,-1.065032 -3.578926,0 -0.30085,0.429524 -0.30085,1.453931 0,1.883455 0.275414,0.393208 0.958458,0.773042 1.44479,0.803432 0.18957,0.01185 -0.198241,0.06913 -0.861803,0.127307 -1.343613,0.117791 -1.931558,0.344254 -2.337406,0.900315 -0.307434,0.421223 -1.233803,4.981671 -1.098518,5.407919 0.173097,0.545379 1.341408,0.628541 1.656973,0.117946 0.06478,-0.104822 0.233437,-0.733424 0.374786,-1.396894 0.39414,-1.850037 0.331503,-0.858965 -0.08863,1.402267 -0.205301,1.10498 -0.373275,2.066086 -0.373275,2.13579 0,0.06971 0.202338,0.126737 0.44964,0.126737 h 0.449641 v 2.162556 c 0,1.76612 0.04318,2.205731 0.235526,2.398081 0.270133,0.270134 0.850139,0.30675 1.273128,0.08037 z m 7.148149,-8.425483 -0.0387,-8.580635 h -0.44964 -0.44964 l -0.0387,8.580635 -0.0387,8.580636 h 0.527035 0.527035 z m 4.858074,8.332585 c 0.24656,-0.223134 0.274092,-0.524226 0.274092,-2.997601 0,-2.649632 0.01089,-2.749552 0.29976,-2.749552 0.288762,0 0.29976,0.09992 0.29976,2.72351 0,3.05286 0.06615,3.271694 0.988951,3.271694 0.938661,0 0.957671,-0.105144 0.974809,-5.391564 l 0.01532,-4.725343 0.321911,1.573411 c 0.29168,1.425653 0.360617,1.591803 0.734081,1.769269 0.339504,0.161329 0.484837,0.161192 0.82434,-7.79e-4 0.563777,-0.268964 0.576543,-0.624502 0.110221,-3.069749 -0.672377,-3.525737 -0.723819,-3.569514 -4.194453,-3.569514 -3.519753,0 -3.615507,0.07709 -4.28152,3.447067 -0.506429,2.562486 -0.523502,2.816586 -0.206897,3.079345 0.314273,0.260823 1.07904,0.244561 1.352359,-0.02876 0.122083,-0.122083 0.347826,-0.858369 0.501653,-1.636191 l 0.279685,-1.414222 0.05326,4.770926 c 0.05042,4.516424 0.06878,4.782267 0.344196,4.983514 0.389432,0.284557 0.97231,0.26876 1.308473,-0.03546 z m 2.037384,-13.904102 c 0.492844,-0.451658 0.559849,-0.596542 0.559849,-1.210557 0,-0.614016 -0.06701,-0.758899 -0.559849,-1.210558 -0.507985,-0.465533 -0.643568,-0.513063 -1.463532,-0.513063 -0.819964,0 -0.955547,0.04753 -1.463533,0.513063 -0.492843,0.451659 -0.559849,0.596542 -0.559849,1.210558 0,0.614015 0.06701,0.758899 0.559849,1.210557 0.507986,0.465533 0.643569,0.513064 1.463533,0.513064 0.819964,0 0.955547,-0.04753 1.463532,-0.513064 z"
     id="path1530"
     inkscape:connector-curvature="0" /></svg>