<?xml version="1.0" encoding="UTF-8"?>
<svg enable-background="new 0 0 100 100" version="1.1" viewBox="0 0 100 125" xml:space="preserve" xmlns="http://www.w3.org/2000/svg" xmlns:cc="http://creativecommons.org/ns#" xmlns:dc="http://purl.org/dc/elements/1.1/" xmlns:rdf="http://www.w3.org/1999/02/22-rdf-syntax-ns#"><metadata><rdf:RDF><cc:Work rdf:about=""><dc:format>image/svg+xml</dc:format><dc:type rdf:resource="http://purl.org/dc/dcmitype/StillImage"/><dc:title/></cc:Work></rdf:RDF></metadata><g fill="#00f" stroke-width=".19"><path d="m49 91c-0.59-0.5-22-43-23-45-1-3-1.3-5-1.3-8.4-0.0051-4.6 0.76-7.9 2.8-12 3.7-7.1 10-12 18-13 1.9-0.33 5.9-0.37 7.9-0.086 11 1.6 19 10 21 21 0.39 2.3 0.39 6.4-0.0085 8.8-0.6 3.6-0.95 4.3-13 27-6.2 12-11 22-12 22-0.46 0.35-1.2 0.32-1.7-0.068zm3.2-33c2.5-0.31 4.4-0.87 6.6-1.9 11-5.5 15-19 8.4-30-1.1-1.8-3.7-4.4-5.4-5.6-2-1.3-4.6-2.6-6.7-3.1-2.5-0.65-6.2-0.81-8.6-0.38-8.4 1.5-15 7.7-17 16-0.23 0.96-0.3 2.2-0.3 4.5 0.011 2.8 0.069 3.4 0.5 5 0.92 3.4 2.6 6.5 5.1 9.1 4.5 4.8 11 7.2 17 6.4z"/><path d="m59 49c-0.42-0.36-0.64-1-1.6-4.7l-1.1-4.3-8.5-0.19-0.42-0.49c-0.35-0.4-0.63-1.6-1.6-6.6-0.79-4.1-1.3-6.4-1.6-7.1-1.1-2.3 0.27-4.5 2.7-4.5 1.6 0 2.9 1.1 3 2.8 0.11 1.1-0.42 2.3-1.3 2.8-0.63 0.37-0.63 0.31-0.015 3l0.3 1.3 3.3 0.094c3.1 0.086 3.4 0.12 3.6 0.47 0.43 0.58 0.5 1.1 0.23 1.7-0.41 0.86-0.93 1-3.9 1-1.5 0.0015-2.7 0.041-2.7 0.087s0.09 0.5 0.2 1l0.2 0.93 8.4 0.12 0.4 0.47c0.28 0.33 0.71 1.7 1.4 4.6 1 4.2 1 4.2 1.5 4.1 0.26-0.059 0.9-0.16 1.4-0.22 0.82-0.1 1-0.057 1.5 0.34 0.4 0.35 0.52 0.61 0.52 1.2 0 1.1-0.58 1.6-2.8 2.1-2.3 0.55-2.7 0.56-3.3 0.026z"/><path d="m46 53c-1.7-0.28-3.8-1.3-5.3-2.5-1.1-0.94-2.6-3.1-3.1-4.7-0.52-1.5-0.7-3.9-0.4-5.4 0.36-1.9 1.5-4.1 2.9-5.4 1.1-1.1 3.2-2.6 3.4-2.3 0.049 0.049 0.19 0.62 0.31 1.3 0.17 0.93 0.17 1.2-0.012 1.3-0.13 0.042-0.64 0.4-1.1 0.79-4.8 3.8-4 11 1.4 14 3.3 1.6 6.7 1.2 9.4-1.3 0.57-0.53 1.3-1.4 1.6-1.9l0.53-0.92 0.78 3.3-1.1 1.1c-1.3 1.3-3.2 2.3-4.9 2.7-1.1 0.26-3.2 0.34-4.3 0.16z"/></g></svg>
