<?xml version="1.0" encoding="UTF-8"?>
<!-- Created with Inkscape (http://www.inkscape.org/) -->
<svg width="750" height="750" version="1.1" viewBox="0 0 750 750" xmlns="http://www.w3.org/2000/svg" xmlns:cc="http://creativecommons.org/ns#" xmlns:dc="http://purl.org/dc/elements/1.1/" xmlns:rdf="http://www.w3.org/1999/02/22-rdf-syntax-ns#" xmlns:xlink="http://www.w3.org/1999/xlink">
 <metadata>
  <rdf:RDF>
   <cc:Work rdf:about="">
    <dc:format>image/svg+xml</dc:format>
    <dc:type rdf:resource="http://purl.org/dc/dcmitype/StillImage"/>
    <dc:title/>
   </cc:Work>
  </rdf:RDF>
 </metadata>
 <image width="750" height="750" image-rendering="optimizeSpeed" preserveAspectRatio="none" xlink:href="/home/jeff/Dev/Widget-And-Small-App-Projects/dulibmap/assets/img/map/slide/tmp/main/main_sec.png"/>
 <path d="m152 188c0-0.64-10-1-28-1h-28v-150l52 0.53 1 60 44 0.26c39 0.23 44 0.071 45-1.2 0.62-1.6 7.4-2.2 7.4-0.63 0 1.4 4.2 2.1 6.2 1 1.6-0.87 1.8-2.4 1.8-13v-12h22c14 0 22-0.36 22-1 0-0.58 3.3-1 8-1h8l0.53 119-32-1.8e-4c-21-1.1e-4 -32-0.35-32-1 0-0.65-15-1-42-1s-42 0.35-42 1c0 0.55-2.5 1-5.5 1s-5.5-0.45-5.5-1z" fill="#dff791"/>
</svg>
