<?xml version="1.0" encoding="UTF-8"?>
<!-- Created with Inkscape (http://www.inkscape.org/) -->
<svg width="750" height="750" version="1.1" viewBox="0 0 750 750" xmlns="http://www.w3.org/2000/svg" xmlns:cc="http://creativecommons.org/ns#" xmlns:dc="http://purl.org/dc/elements/1.1/" xmlns:rdf="http://www.w3.org/1999/02/22-rdf-syntax-ns#" xmlns:xlink="http://www.w3.org/1999/xlink">
 <metadata>
  <rdf:RDF>
   <cc:Work rdf:about="">
    <dc:format>image/svg+xml</dc:format>
    <dc:type rdf:resource="http://purl.org/dc/dcmitype/StillImage"/>
    <dc:title/>
   </cc:Work>
  </rdf:RDF>
 </metadata>
 <image width="750" height="750" image-rendering="optimizeSpeed" preserveAspectRatio="none" xlink:href="file:///home/jeff/Dev/Widget-And-Small-App-Projects/dulibmap2/assets/img/map/slide/tmp/main_lenddesk.png"/>
 <path d="m388 550-5.7-0.38-1.8-5.2c-2-6-2.3-7.1-2.8-11-0.19-1.6-0.89-6.8-1.6-12-0.67-4.7-0.93-11-0.59-15 0.67-6.8 3.2-18 4.8-21 0.65-1.2 0.64-2.2-0.034-2.9-1.4-1.4 0.69-5.8 2.8-5.8 0.91 0 2.7-1.4 3.9-3 2.2-3 2.2-3 4.3-1 1.2 1.1 4 2.9 6.2 4.1 6.8 3.5 10 5.6 15 8.4 2.2 1.4 4.4 2.6 4.9 2.6 1.7 0 2.3 2.1 1.3 4.3-3.6 7.5-5.4 12-5.7 15-0.2 1.6-0.64 3.3-0.99 3.9-2.2 3.6-3.8 14-3.9 25l-0.13 13-5 0.014c-2.8 8e-3 -5.9 0.16-7 0.33s-4.6 0.15-7.7-0.062z" fill="#e58383"/>
</svg>
