<?xml version="1.0" encoding="UTF-8"?>
<!-- Created with Inkscape (http://www.inkscape.org/) -->
<svg width="750" height="750" version="1.1" viewBox="0 0 750 750" xmlns="http://www.w3.org/2000/svg" xmlns:cc="http://creativecommons.org/ns#" xmlns:dc="http://purl.org/dc/elements/1.1/" xmlns:rdf="http://www.w3.org/1999/02/22-rdf-syntax-ns#" xmlns:xlink="http://www.w3.org/1999/xlink">
 <metadata>
  <rdf:RDF>
   <cc:Work rdf:about="">
    <dc:format>image/svg+xml</dc:format>
    <dc:type rdf:resource="http://purl.org/dc/dcmitype/StillImage"/>
    <dc:title/>
   </cc:Work>
  </rdf:RDF>
 </metadata>
 <image width="750" height="750" image-rendering="optimizeSpeed" preserveAspectRatio="none" xlink:href="/home/jeff/Dev/Widget-And-Small-App-Projects/dulibmap/assets/img/map/slide/tmp/main/main_er.png"/>
 <path d="m227 406c0-1.3-7.9-1.5-66-1.5h-66v-68c0-59-0.19-68-1.5-68-0.91-0.35-1.5-1.9-1.5-3.9l-5.4e-4 -3.3 31 0.28c27 0.24 31 0.094 31-1.2 0-2.1 6.6-2.1 7.4-0.028 0.5 1.3 6.1 1.5 42 1.5l41 1e-5 -0.032 71c-0.026 58-0.29 72-1.4 73-1.8 2.4-16 2.6-16 0.25z" fill="#fcdd88"/>
</svg>
