<?xml version="1.0" encoding="UTF-8"?>
<!-- Created with Inkscape (http://www.inkscape.org/) -->
<svg width="750" height="750" version="1.1" viewBox="0 0 750 750" xmlns="http://www.w3.org/2000/svg" xmlns:cc="http://creativecommons.org/ns#" xmlns:dc="http://purl.org/dc/elements/1.1/" xmlns:rdf="http://www.w3.org/1999/02/22-rdf-syntax-ns#" xmlns:xlink="http://www.w3.org/1999/xlink">
 <metadata>
  <rdf:RDF>
   <cc:Work rdf:about="">
    <dc:format>image/svg+xml</dc:format>
    <dc:type rdf:resource="http://purl.org/dc/dcmitype/StillImage"/>
    <dc:title/>
   </cc:Work>
  </rdf:RDF>
 </metadata>
 <image width="750" height="750" image-rendering="optimizeSpeed" preserveAspectRatio="none" xlink:href="/home/jeff/Dev/Widget-And-Small-App-Projects/dulibmap/assets/img/map/slide/tmp/main/main_access_doors_pin.png"/>
 <path d="m366 651c-0.96-1.6-2.1-3-2.5-3-0.43 0-0.78-0.64-0.78-1.4 0-0.79-0.6-2-1.3-2.8s-2.6-3.4-4.1-5.8c-1.5-2.5-3.1-4.7-3.4-5s-1.6-2.6-2.9-5.1c-3-6.1-2.8-11 0.52-17 2.2-4 3.8-5.6 8.2-7.8 6.5-3.3 11-3.5 17-0.63 7.2 3.1 11 9.1 11 18 0 5.6-0.44 7-3.7 12-2 3.2-4.3 6.4-5 7.1-0.72 0.73-1.3 2-1.3 2.8 0 0.79-0.36 1.4-0.79 1.4s-2.1 2.2-3.7 5c-1.6 2.7-3.5 5.2-4.2 5.5-0.7 0.27-2.1-0.84-3-2.5zm14-30v-7.9h-13v8c0 4.7 0.42 8 1 8 0.57 0 1-3 1-7v-7h9v7.6c0 4.8 0.37 7.3 1 6.9 0.55-0.34 1-4.2 1-8.6zm-17 2.6 2.3-2.5-2.3-2.5c-2.6-2.7-5.6-3.4-4.7-1.1 0.38 1-0.28 1.5-2.1 1.8-3.3 0.38-3.6 3.2-0.45 3.6 1.2 0.18 2.2 0.96 2.2 1.8 0 2.2 2.4 1.7 5-1.1z" fill="#3539ea"/>
</svg>
