<?xml version="1.0" encoding="UTF-8"?>
<!-- Created with Inkscape (http://www.inkscape.org/) -->
<svg width="750" height="750" version="1.1" viewBox="0 0 750 750" xmlns="http://www.w3.org/2000/svg" xmlns:cc="http://creativecommons.org/ns#" xmlns:dc="http://purl.org/dc/elements/1.1/" xmlns:rdf="http://www.w3.org/1999/02/22-rdf-syntax-ns#">
 <metadata>
  <rdf:RDF>
   <cc:Work rdf:about="">
    <dc:format>image/svg+xml</dc:format>
    <dc:type rdf:resource="http://purl.org/dc/dcmitype/StillImage"/>
    <dc:title/>
   </cc:Work>
  </rdf:RDF>
 </metadata>
 <path d="m-2.2e-7 375v-375h750v750h-750z" fill="#fff"/>
 <path d="m364 213c-16-1.8-43-9.4-47-13-0.94-0.9-1.2-8.1-1.2-29v-28h42v-9.5c0-5.7-0.4-9.5-1-9.5-1.7 0-1.2-7.7 0.58-8.4 0.87-0.33 8.1-0.61 16-0.61h14v39c0 34 0.2 39 1.5 40 0.98 0.38 1.5 1.9 1.5 4.5 0 2.8-0.42 3.9-1.5 3.9-1.2 0-1.5 1.4-1.5 6.5v6.5l-6.2-0.14c-3.4-0.078-11-0.69-17-1.4z" fill="#f1c4c4"/>
</svg>
