<?xml version="1.0" encoding="UTF-8"?>
<!-- Created with Inkscape (http://www.inkscape.org/) -->
<svg width="750" height="750" version="1.1" viewBox="0 0 750 750" xmlns="http://www.w3.org/2000/svg" xmlns:cc="http://creativecommons.org/ns#" xmlns:dc="http://purl.org/dc/elements/1.1/" xmlns:rdf="http://www.w3.org/1999/02/22-rdf-syntax-ns#" xmlns:xlink="http://www.w3.org/1999/xlink">
 <metadata>
  <rdf:RDF>
   <cc:Work rdf:about="">
    <dc:format>image/svg+xml</dc:format>
    <dc:type rdf:resource="http://purl.org/dc/dcmitype/StillImage"/>
    <dc:title/>
   </cc:Work>
  </rdf:RDF>
 </metadata>
 <image width="750" height="750" image-rendering="optimizeSpeed" preserveAspectRatio="none" xlink:href="/home/jeff/Dev/Widget-And-Small-App-Projects/dulibmap/assets/img/map/slide/tmp/main/main_access_restroom1_pin.png"/>
 <path d="m635 223c-1.2-1.5-2.2-3.3-2.2-4 0-0.71-0.37-1.3-0.82-1.3s-1.8-1.7-2.9-3.8c-1.2-2.1-3-4.8-4.2-6.2-1.1-1.3-2.1-3-2.1-3.7s-0.37-1.3-0.81-1.3c-1.5 0-4.2-7-4.2-11 8.6e-4 -2 0.88-5.3 2-7.2 1.1-1.9 2.2-4.2 2.6-5 0.34-0.82 2.6-2.7 4.9-4.2 3.5-2.2 5.4-2.8 11-2.8s7 0.5 11 2.8c2.4 1.5 4.6 3.4 4.9 4.2 0.34 0.82 1.5 3.1 2.6 5 1.1 1.9 2 5.2 2 7.2 0.0016 3.8-2.7 11-4.2 11-0.45 0-0.81 0.61-0.81 1.3s-0.93 2.4-2.1 3.7c-1.1 1.3-3 4.1-4.2 6.2-1.2 2.1-2.5 3.8-2.9 3.8s-0.82 0.61-0.82 1.3c0 1.3-4.1 6.7-5.1 6.7-0.29 0-1.5-1.2-2.7-2.7zm8.6-11c2.8-0.46 4.2-1.6 1.9-1.6-0.92 0-1.7-0.56-1.7-1.2-0.01-0.83-0.34-0.75-0.98 0.25-0.53 0.82-0.99 1-1 0.5-0.025-0.55-0.5-0.21-1.1 0.75-1.3 2.2-5.2 2.3-7 0.17-1-1.2-1.1-2.2-0.14-4.7 0.64-1.7 0.97-3.3 0.72-3.6-0.55-0.55-2.5 4.4-2.5 6.3 0 2.7 3.2 4.7 6.4 4.1 1.7-0.32 4.1-0.75 5.4-0.96zm-0.78-5.6c0-0.52-1.5-1.1-3.2-1.3l-3.2-0.36 5-2.3-2.3-0.063c-2.1-0.056-2.3-0.41-1.7-3.1 0.4-1.8 0.25-3-0.36-3-1.8 0-2.2 1.7-1.5 5.9 0.53 3.3 1.1 4.1 3.3 4.4 1.4 0.22 3 0.47 3.4 0.55 0.41 0.082 0.75-0.27 0.75-0.79zm1.9-13c0.15 3.8 2.1 3.4 2.1-0.43 0-1.4 0.51-3.5 1.1-4.6 0.73-1.4 0.78-2.3 0.15-2.5-0.55-0.18-0.79-1.4-0.53-2.8 0.35-1.9 0.041-2.5-1.3-2.5-1.4 0-1.5-0.26-0.49-1.5 0.86-1 0.9-1.5 0.12-1.5-1.9 0-2.6 0.45-2.6 1.6-8e-3 0.61-0.52 1.7-1.1 2.5-1.8 2.2-2.6 5.9-1.4 5.9 0.62 0 0.85 0.45 0.51 1s-0.14 1 0.44 1 1.1 1.7 1.2 3.8l0.13 3.8 1.5-7zm-11-4.7c0.54-5.3 0.38-6.8-0.84-7.7-1.2-0.84-1.2-1.4-0.35-2.3 0.89-0.89 0.62-1.2-1.1-1.2-1.4 0-2.1 0.49-1.9 1.2 0.23 0.69-0.2 1.7-0.97 2.3-1.1 0.79-1.2 2.5-0.71 7.6 0.61 6 0.89 6.6 2.9 6.6s2.3-0.62 2.9-6.6z" fill="#3237ea"/>
</svg>
