<?xml version="1.0" encoding="UTF-8"?>
<!-- Created with Inkscape (http://www.inkscape.org/) -->
<svg width="750" height="750" version="1.1" viewBox="0 0 750 750" xmlns="http://www.w3.org/2000/svg" xmlns:cc="http://creativecommons.org/ns#" xmlns:dc="http://purl.org/dc/elements/1.1/" xmlns:rdf="http://www.w3.org/1999/02/22-rdf-syntax-ns#" xmlns:xlink="http://www.w3.org/1999/xlink">
 <metadata>
  <rdf:RDF>
   <cc:Work rdf:about="">
    <dc:format>image/svg+xml</dc:format>
    <dc:type rdf:resource="http://purl.org/dc/dcmitype/StillImage"/>
    <dc:title/>
   </cc:Work>
  </rdf:RDF>
 </metadata>
 <image width="750" height="750" image-rendering="optimizeSpeed" preserveAspectRatio="none" xlink:href="/home/jeff/Dev/Widget-And-Small-App-Projects/dulibmap/assets/img/map/slide/tmp/main/main_access_elevator_pin.png"/>
 <path d="m322 606c-0.54-1.1-2.9-4.7-5.2-8.1s-4.2-6.5-4.2-6.9-0.75-1.4-1.7-2.1c-2.7-2.2-6.3-11-6.3-15 8e-3 -2.4 1.1-5.9 2.7-9 3.6-6.6 11-11 18-10 4.5 0.5 11 3.2 12 5.1 0.36 0.55 1.6 2.1 2.7 3.3 2.4 2.8 3.6 9.4 2.6 15-0.38 2.3-2.5 6.8-4.9 10-5.6 8.1-6.7 9.8-10 15-3.1 5-4.6 5.7-6.2 2.7zm11-26v-9.5h-8.3c-5.1 0-8.8 0.46-9.5 1.2-1.6 1.6-1.6 15 0 17 0.74 0.74 4.4 1.2 9.5 1.2h8.3zm-12 2c0.61-4.1 0.49-4.5-1.4-4.5-1.5 0-2.1-0.64-2.1-2.5 0-2.4 0.23-2.5 6.5-2.5h6.5l-0.18 7.2c-0.14 5.5-0.27 6.1-0.55 2.5-0.37-4.7-0.43-4.8-3.8-4.8-3.4 0-3.4 0.037-3.4 4.5 0 2.6-0.46 4.5-1.1 4.5-0.75 0-0.9-1.5-0.44-4.5zm-0.45-6.5c0-0.55-0.45-1-1-1s-1 0.45-1 1 0.45 1 1 1 1-0.45 1-1zm4 0c0-0.55-0.45-1-1-1s-1 0.45-1 1 0.45 1 1 1 1-0.45 1-1zm1 8.5c0-1.4 0.17-2.5 0.38-2.5 0.21 0 0.6 1.1 0.86 2.5s0.09 2.5-0.38 2.5c-0.47 0-0.86-1.1-0.86-2.5zm-5-18 0.5-2.8 3 2.3c1.6 1.3 3.3 2.8 3.7 3.3 0.99 1.4 4.8-2.3 4.8-4.7 0-1.6-0.25-1.8-1.5-0.72-1.3 1.1-1.5 0.73-1.5-2.4 0-2-0.45-3.6-1-3.6s-1 1.7-1 3.8c-0.01 2.5-0.3 3.3-0.89 2.4-0.48-0.76-1.3-1.1-1.8-0.79-0.52 0.32-1.9-0.74-3.1-2.4-2.3-3.2-4.1-3.8-4.1-1.6 0 0.76-0.68 1.9-1.5 2.6s-1.5 1.7-1.5 2.2 0.68 0.73 1.5 0.41c1.1-0.43 1.5 0.17 1.5 2.5 0 3.8 2.3 3.4 3-0.54z" fill="#3438ea"/>
</svg>
