<?xml version="1.0" encoding="UTF-8"?>
<!-- Created with Inkscape (http://www.inkscape.org/) -->
<svg width="750" height="750" version="1.1" viewBox="0 0 750 750" xmlns="http://www.w3.org/2000/svg" xmlns:cc="http://creativecommons.org/ns#" xmlns:dc="http://purl.org/dc/elements/1.1/" xmlns:rdf="http://www.w3.org/1999/02/22-rdf-syntax-ns#" xmlns:xlink="http://www.w3.org/1999/xlink">
 <metadata>
  <rdf:RDF>
   <cc:Work rdf:about="">
    <dc:format>image/svg+xml</dc:format>
    <dc:type rdf:resource="http://purl.org/dc/dcmitype/StillImage"/>
    <dc:title/>
   </cc:Work>
  </rdf:RDF>
 </metadata>
 <image width="750" height="750" image-rendering="optimizeSpeed" preserveAspectRatio="none" xlink:href="/home/jeff/Dev/Widget-And-Small-App-Projects/dulibmap/assets/img/map/slide/tmp/main/main_rc.png"/>
 <path d="m484 416c-1.3-1.4-2.9-2.5-3.6-2.5-0.66-0.01-1.6-0.61-2-1.3-0.44-0.72-3.8-3.5-7.5-6.1-3.7-2.6-7-5.2-7.3-5.7s0.59-2.1 2-3.7 2.6-3.3 2.6-3.9c0-0.63 0.7-1.7 1.5-2.4 0.85-0.71 2.7-3.7 4.2-6.6 1.4-2.9 3-5.3 3.5-5.3 0.46 0 0.84-0.68 0.84-1.5s1.1-3.3 2.5-5.5 2.5-4.6 2.5-5.4 0.5-1.8 1.1-2.1c0.66-0.41 0.88-2.1 0.54-4.2-0.64-3.9 0.67-7.2 2.9-7.2 0.81 0 1.5-0.45 1.5-1 0-0.64 8.5-1 24-1 13 0 24 0.39 24 0.88 0 0.48-0.68 1.4-1.5 2.1s-1.5 1.8-1.5 2.5c0 1.7-3.3 7.4-4.2 7.5-0.41 3e-3 -0.75 0.71-0.75 1.6s-1.1 3.2-2.5 5.2c-1.4 2-2.5 4.2-2.5 4.9s-0.62 1.8-1.4 2.6c-0.76 0.76-2.3 3.2-3.4 5.4-1.1 2.2-2.8 4.6-3.6 5.3s-1.6 2.4-1.6 3.7c0 1.3-0.57 2.4-1.3 2.4-0.69 0-2.6 2.1-4.2 4.7-1.6 2.6-3.7 5.7-4.5 6.9s-3.1 4.5-5 7.3c-3.3 4.8-3.8 5.1-7.6 5.1-3.1 0-4.7-0.61-6.5-2.5z" fill="#fcdd88"/>
</svg>
