<?xml version="1.0" encoding="UTF-8"?>
<!-- Created with Inkscape (http://www.inkscape.org/) -->
<svg width="750" height="750" version="1.1" viewBox="0 0 750 750" xmlns="http://www.w3.org/2000/svg" xmlns:cc="http://creativecommons.org/ns#" xmlns:dc="http://purl.org/dc/elements/1.1/" xmlns:rdf="http://www.w3.org/1999/02/22-rdf-syntax-ns#" xmlns:xlink="http://www.w3.org/1999/xlink">
 <metadata>
  <rdf:RDF>
   <cc:Work rdf:about="">
    <dc:format>image/svg+xml</dc:format>
    <dc:type rdf:resource="http://purl.org/dc/dcmitype/StillImage"/>
    <dc:title/>
   </cc:Work>
  </rdf:RDF>
 </metadata>
 <image width="750" height="750" image-rendering="optimizeSpeed" preserveAspectRatio="none" xlink:href="file:///home/jeff/Dev/Widget-And-Small-App-Projects/dulibmap/assets/img/map/slide/main_dmc.png"/>
 <path d="m448 461c0-0.46-2-1.9-4.5-3.2-2.5-1.3-5-2.9-5.6-3.7-0.61-0.73-1.8-1.3-2.6-1.3s-2.9-1.1-4.6-2.4c-1.7-1.3-4.1-2.7-5.3-3.1-2.3-0.72-3.2-4.6-1.1-4.6 1.1 0 8.9-7.3 8.9-8.3 0-0.29 2.1-2.7 4.8-5.4 6.4-6.5 13-15 13-16-0.51-1.8 2.8-5.3 4.9-5.3 1.3 0 2.3-0.61 2.3-1.4 0-0.76 0.6-1.9 1.3-2.5 1-0.85 1.9-0.52 3.7 1.4 1.3 1.4 2.9 2.5 3.7 2.5 0.73 0 1.3 0.34 1.3 0.77 0 0.7 7.5 6.1 12 8.8 1.1 0.61 2.9 2.1 4.2 3.2 1.3 1.2 3 2.1 4 2.1 1.5 0 1.5 0.3 0.44 2.1-3.7 6.1-30 33-33 33-0.45 0-1.6 0.9-2.6 2-1.8 2-5.5 2.8-5.5 1.2z" fill="#92d8f7"/>
</svg>
