<?xml version="1.0" encoding="UTF-8"?>
<!-- Created with Inkscape (http://www.inkscape.org/) -->
<svg width="750" height="750" version="1.1" viewBox="0 0 750 750" xmlns="http://www.w3.org/2000/svg" xmlns:cc="http://creativecommons.org/ns#" xmlns:dc="http://purl.org/dc/elements/1.1/" xmlns:rdf="http://www.w3.org/1999/02/22-rdf-syntax-ns#">
 <metadata>
  <rdf:RDF>
   <cc:Work rdf:about="">
    <dc:format>image/svg+xml</dc:format>
    <dc:type rdf:resource="http://purl.org/dc/dcmitype/StillImage"/>
    <dc:title/>
   </cc:Work>
  </rdf:RDF>
 </metadata>
 <path d="m0 375v-375h750v750h-750z" fill="#fefefe"/>
 <path d="m546 440c0.17-15 5e-3 -17-1.4-17-1.3-0.25-1.6-1.5-1.6-5.6v-5.3l8.4 0.17-0.55-27 25-0.12v24h-8.5c-6.6 0-8.5 0.31-8.5 1.4 0 0.77 0.71 1.7 1.6 2 1.9 0.74 17 0.81 19 0.097 1-0.4 1.3-3.4 0.98-14l-0.35-14 36 0.58 0.56 24h-14c-13 0-14 0.099-14 2 0 1.5 0.67 2 2.5 2 2.3 0 2.5 0.34 2.5 5v5l-6.7 0.3c-5.5 0.24-6.8 0.62-7.1 2-0.29 1.5 0.54 1.8 6.7 1.8h7.1v30h-22l-0.3-15c-0.17-8.3 0.018-15 0.41-16 0.39-0.24 0.45-1.1 0.14-1.9-0.8-2.1-18-2.1-19-0.066-0.85 2.2 0.22 2.6 7 2.6h6.3v30l-21 0.63 0.19-17z" fill="#c0fdd7"/>
</svg>
