<?xml version="1.0" encoding="UTF-8"?>
<!-- Created with Inkscape (http://www.inkscape.org/) -->
<svg width="750" height="750" version="1.1" viewBox="0 0 750 750" xmlns="http://www.w3.org/2000/svg" xmlns:cc="http://creativecommons.org/ns#" xmlns:dc="http://purl.org/dc/elements/1.1/" xmlns:rdf="http://www.w3.org/1999/02/22-rdf-syntax-ns#">
 <metadata>
  <rdf:RDF>
   <cc:Work rdf:about="">
    <dc:format>image/svg+xml</dc:format>
    <dc:type rdf:resource="http://purl.org/dc/dcmitype/StillImage"/>
    <dc:title/>
   </cc:Work>
  </rdf:RDF>
 </metadata>
 <path d="m-1.1e-6 375v-375h750v750h-750z" fill="#fff"/>
 <path d="m62 388c0-0.57-3-1-7-1h-7l-0.073-4.8c-0.04-2.6-0.44-7-0.9-9.8-3-18-5.3-30-6-31-0.45-0.86-1.8-6.3-3-12s-2.6-11-3-12c-0.43-0.55-1.3-3.4-1.9-6.4-0.63-3-1.6-5.9-2.1-6.6-0.51-0.62-1.6-3.8-2.5-7-1.6-6.1-6.9-21-8.6-24-0.93-1.6 0.4-1.8 22-1.8 13 0 23 0.11 23 0.25s0.45 9.2 0.75 20l0.55 20 8.3 0.29c6.7 0.24 8.4-5e-5 8.9-1.2 0.77-2 7.2-2 11-0.047 4 2.1 18 2.1 19 6e-3 0.68-1.8 8.9-2.1 9.9-0.41 0.37 0.6 1.5 0.87 2.6 0.59 1-0.27 1.9-0.086 1.9 0.41 0 1.6 16 1.1 17-0.59 1.6-1.6 11-2.1 11-0.58 0 1.5 6.1 2.5 7 1.1 1.4-2.2-0.15 8.2-2.6 18-1.3 5.3-2.4 11-2.4 12-0.011 1.6-1.1 7.1-2.5 12s-2.5 11-2.5 12c-0.011 1.5-0.98 6.6-2.1 11l-2.1 8.5h-5.4c-3 0-5.4 0.45-5.4 1s-2.2 1-5 1-5-0.45-5-1c0-0.61-4.3-1-11-1s-11 0.39-11 1c0 0.55-2.2 1-5 1-2.8 0-5-0.45-5-1 0-0.61-4.7-1-12-1s-12 0.39-12 1c0 0.55-2.2 1-5 1s-5-0.45-5-1z" fill="#dff791"/>
</svg>
