<?xml version="1.0" encoding="UTF-8"?>
<!-- Created with Inkscape (http://www.inkscape.org/) -->
<svg width="750" height="750" version="1.1" viewBox="0 0 750 750" xmlns="http://www.w3.org/2000/svg" xmlns:cc="http://creativecommons.org/ns#" xmlns:dc="http://purl.org/dc/elements/1.1/" xmlns:rdf="http://www.w3.org/1999/02/22-rdf-syntax-ns#">
 <metadata>
  <rdf:RDF>
   <cc:Work rdf:about="">
    <dc:format>image/svg+xml</dc:format>
    <dc:type rdf:resource="http://purl.org/dc/dcmitype/StillImage"/>
    <dc:title/>
   </cc:Work>
  </rdf:RDF>
 </metadata>
 <path d="m0 375v-375h750v750h-750z" fill="#fefefe"/>
 <path d="m602 237c-1.5-2.3-3.2-4.9-3.8-5.8-3.6-5.6-7.1-11-8.5-13-4.3-5.2-4.9-15-1.6-22 6.3-13 28-13 34 0 3.4 6.9 2.7 16-1.5 22-1.4 1.7-4.9 7-8.5 13-3.4 5.3-6.6 9.9-7 9.9-0.26 0-1.7-1.9-3.2-4.1zm6.7-10c0.8-0.96 0.84-1.6 0.12-2.1-0.58-0.36-1 0.054-1 0.91 0 2-4.3 2.1-6 0.072-0.78-0.94-0.96-2.5-0.5-4.2 0.4-1.5 0.94-2.2 1.2-1.5 0.25 0.69 1.5 1.2 2.9 1.2 1.5 0 3 1 4.1 2.8 0.95 1.5 1.8 2.9 2 3.1 0.13 0.19 0.71 0.056 1.3-0.3 0.67-0.41 0.33-1.4-0.93-2.8-1.1-1.2-2-2.5-2-2.9s-1.3-0.81-2.8-0.81c-2.4 0-2.8-0.44-3-2.9-0.12-1.6 0.24-3.2 0.8-3.6 1.2-0.71 0.39-2.5-1.1-2.5-0.52 0-0.94 1.4-0.94 3 0 1.7-0.89 3.9-2 5-2.2 2.2-2.5 4.2-0.96 7.1 1.2 2.3 7.1 2.7 8.9 0.52zm4.1-19 0.72 3 0.12-3.2c0.065-1.8 0.59-3.2 1.2-3.2s0.8-0.41 0.49-0.91c-0.31-0.5-0.098-1.1 0.47-1.3 1.3-0.43-0.75-6.8-2.2-6.8-0.52 0-0.81-0.58-0.65-1.3 0.16-0.7-0.16-1.4-0.71-1.5-0.55-0.12-1 0.34-1 1s-0.79 2-1.8 3c-2 2-2 7.4-0.024 8.2 0.71 0.27 1.4 2 1.4 3.8l0.16 3.3 1-7 0.72 3zm-13-1c0-1.9 0.48-3.5 1.1-3.5 0.61 0 0.93-1.6 0.75-3.8-0.29-3.6-0.49-3.8-3.8-3.8s-3.5 0.19-3.8 3.8c-0.18 2.2 0.14 3.8 0.75 3.8 0.58 0 1.1 1.6 1.1 3.5 0 2.8 0.38 3.5 2 3.5s2-0.67 2-3.5zm-1-14c0-0.55-0.45-1-1-1s-1 0.45-1 1 0.45 1 1 1 1-0.45 1-1z" fill="#3238e8"/>
</svg>
