<?xml version="1.0" encoding="UTF-8"?>
<!-- Created with Inkscape (http://www.inkscape.org/) -->
<svg width="750" height="750" version="1.1" viewBox="0 0 750 750" xmlns="http://www.w3.org/2000/svg" xmlns:cc="http://creativecommons.org/ns#" xmlns:dc="http://purl.org/dc/elements/1.1/" xmlns:rdf="http://www.w3.org/1999/02/22-rdf-syntax-ns#">
 <metadata>
  <rdf:RDF>
   <cc:Work rdf:about="">
    <dc:format>image/svg+xml</dc:format>
    <dc:type rdf:resource="http://purl.org/dc/dcmitype/StillImage"/>
    <dc:title/>
   </cc:Work>
  </rdf:RDF>
 </metadata>
 <path d="m0 375v-375h750v750h-750z" fill="#fff"/>
 <path d="m448 729c-0.55-0.19-6.4-1-13-1.8-6.6-0.83-15-1.9-18-2.5-6.8-1.1-24-3-36-4l-7.5-0.61-0.27-24c-0.23-20-0.49-24-1.8-24-2 0-2-6.6 0.018-7.4 1-0.39 1.5-2 1.5-5.1v-4.5h75v24c0 15 0.36 24 1 24 1.2 0 1.4 26 0.25 26-0.41 0.23-1.2 0.27-1.8 0.085z" fill="#92d8f7"/>
</svg>
