<?xml version="1.0" encoding="UTF-8"?>
<!-- Created with Inkscape (http://www.inkscape.org/) -->
<svg width="750" height="750" version="1.1" viewBox="0 0 750 750" xmlns="http://www.w3.org/2000/svg" xmlns:cc="http://creativecommons.org/ns#" xmlns:dc="http://purl.org/dc/elements/1.1/" xmlns:rdf="http://www.w3.org/1999/02/22-rdf-syntax-ns#">
 <metadata>
  <rdf:RDF>
   <cc:Work rdf:about="">
    <dc:format>image/svg+xml</dc:format>
    <dc:type rdf:resource="http://purl.org/dc/dcmitype/StillImage"/>
    <dc:title/>
   </cc:Work>
  </rdf:RDF>
 </metadata>
 <path d="m0 375v-375h750v750h-750z" fill="#fff"/>
 <path d="m373 572c2e-3 -0.43-0.18-6.5-0.4-14-0.38-12-0.3-13 1.5-13 1 0 1.9-0.45 1.9-1s0.34-0.92 0.75-0.83c1.7 0.37 8.9-1.5 11-2.8 1.8-1.1 2.6-1.2 3.8-0.27 0.79 0.65 1.4 1.7 1.4 2.2s2.1 5.4 4.7 11c2.6 5.3 4.8 11 4.9 12 0.2 2.1-0.16 2.2-6.2 2.2-3.5 0-6.7 0.45-7 1s-1.6 1-2.9 1-2.7 0.41-3.2 0.91c-1.2 1.2-10 2.4-10 1.4z" fill="#cdcead"/>
</svg>
