<?xml version="1.0" encoding="UTF-8"?>
<!-- Created with Inkscape (http://www.inkscape.org/) -->
<svg width="750" height="750" version="1.1" viewBox="0 0 750 750" xmlns="http://www.w3.org/2000/svg" xmlns:cc="http://creativecommons.org/ns#" xmlns:dc="http://purl.org/dc/elements/1.1/" xmlns:rdf="http://www.w3.org/1999/02/22-rdf-syntax-ns#">
 <metadata>
  <rdf:RDF>
   <cc:Work rdf:about="">
    <dc:format>image/svg+xml</dc:format>
    <dc:type rdf:resource="http://purl.org/dc/dcmitype/StillImage"/>
    <dc:title/>
   </cc:Work>
  </rdf:RDF>
 </metadata>
 <path d="m-1.3e-6 375v-375h750v750h-750z" fill="#fff"/>
 <path d="m440 237c0-0.42-3.1-4-6.8-8l-6.8-7.3-23 0.57-0.62 7.5h-64l-0.62-7.5-20-0.57v9.1h-24v-94c0-62-0.34-94-1-94-0.55 0-1-1.6-1-3.5v-3.5h155v118h29v3.8c0 4.5-4.3 24-6.4 29-0.8 1.9-2.2 6.1-3.2 9.2-0.94 3.2-2.3 6.2-3.1 6.9s-1.4 1.8-1.4 2.5c0 0.77-1.1 3.2-2.5 5.4s-2.5 4.6-2.5 5.5-0.34 1.5-0.77 1.5c-0.7 0-6.2 7.5-8.9 12-0.62 1.1-2.1 2.6-3.2 3.4s-2.1 2.1-2.1 2.9c0 0.79-0.68 1.4-1.5 1.4s-1.5-0.34-1.5-0.76z" fill="#dff791"/>
</svg>
