<?xml version="1.0" encoding="UTF-8"?>
<!-- Created with Inkscape (http://www.inkscape.org/) -->
<svg width="750" height="750" version="1.1" viewBox="0 0 750 750" xmlns="http://www.w3.org/2000/svg" xmlns:cc="http://creativecommons.org/ns#" xmlns:dc="http://purl.org/dc/elements/1.1/" xmlns:rdf="http://www.w3.org/1999/02/22-rdf-syntax-ns#" xmlns:xlink="http://www.w3.org/1999/xlink">
 <metadata>
  <rdf:RDF>
   <cc:Work rdf:about="">
    <dc:format>image/svg+xml</dc:format>
    <dc:type rdf:resource="http://purl.org/dc/dcmitype/StillImage"/>
    <dc:title/>
   </cc:Work>
  </rdf:RDF>
 </metadata>
 <image width="750" height="750" image-rendering="optimizeSpeed" preserveAspectRatio="none" xlink:href="/home/jeff/Dev/Widget-And-Small-App-Projects/dulibmap/assets/img/map/slide/tmp/top_access_elevator_pin.png"/>
 <path d="m300 634c-1.2-1.3-2.1-2.5-2.1-2.8s-1.9-3.4-4.2-6.8-4.7-6.9-5.3-7.9-2-3.2-3.2-5.2c-3.3-5.2-3.1-15 0.3-20 3.3-5.1 7.2-7.8 12-8.6 5.6-0.95 13 0.26 16 2.6 1.3 1.1 2.7 2.3 3.3 2.6 2 1.3 5.5 10 5.5 14 0 3.7-2.5 9.6-6.4 15-1.2 1.6-2.6 3.7-3.1 4.6-2.2 3.5-6.9 11-8.5 13l-1.7 2.2zm9.3-16c1.3-0.49 1.6-2.3 1.6-9.5 0-8.1-0.19-9-2.1-9.7l-2.1-0.76 2.1-2.6c2.4-3.1 2.6-4.2 0.62-3.5-1 0.38-1.5-0.28-1.8-2.1-0.4-3.5-2.3-2.6-2.3 1.1 0.013 3.6-0.99 3.5-5-0.53-3-3-3.5-3.2-5.4-1.9-1.2 0.77-2.1 2.3-2.1 3.4 0 1.7 0.25 1.8 1.5 0.76 1.3-1.1 1.5-0.73 1.5 2.4 0 2.6-0.44 3.6-1.5 3.6-1.2 0-1.5 1.7-1.5 9.3 0 5.1 0.3 9.6 0.67 10 0.83 0.83 14 0.88 16 0.06zm-15-9.3v-7h15l-0.59 14-14 0.59zm8.9-1.3c0.067-1-0.58-1.8-1.5-1.8-1.3 0-1.5 0.65-1 3.1 0.34 1.7 0.68 3.9 0.74 4.8 0.13 1.8 1.6-3.3 1.8-6.1zm-3.9 0.25c0-1.1-0.67-2-1.5-2s-1.5 0.89-1.5 2 0.67 2 1.5 2 1.5-0.89 1.5-2zm9 0c0-1.3-0.67-2-2-2s-2 0.67-2 2 0.67 2 2 2 2-0.67 2-2zm-10-13c0.01-2.5 0.3-3.3 0.89-2.4 0.48 0.76 1.3 1.1 1.8 0.79 0.52-0.32 1.9 0.74 3.1 2.4l2.2 3h-4c-4 0-4-0.034-4-3.8z" fill="#cfd0f6"/>
 <path d="m300 634c-1.2-1.3-2.1-2.5-2.1-2.8s-1.9-3.4-4.2-6.8-4.7-6.9-5.3-7.9-2-3.2-3.2-5.2c-3.3-5.2-3.1-15 0.3-20 3.3-5.1 7.2-7.8 12-8.6 5.6-0.95 13 0.26 16 2.6 1.3 1.1 2.7 2.3 3.3 2.6 2 1.3 5.5 10 5.5 14 0 3.7-2.5 9.6-6.4 15-1.2 1.6-2.6 3.7-3.1 4.6-2.2 3.5-6.9 11-8.5 13l-1.7 2.2zm11-25c0.24-7.6 0.011-9.4-1.2-9.9-2-0.75-2-2.8-0.038-4.4 0.82-0.68 1.5-1.7 1.5-2.2s-0.68-0.73-1.5-0.41c-1.1 0.43-1.5-0.17-1.5-2.5 0-4.2-2.3-3.2-3 1.2l-0.52 3.4-3.5-3.6c-3.3-3.3-3.7-3.5-5.7-2.1-1.2 0.8-2.2 2.4-2.2 3.5 0 1.7 0.25 1.8 1.5 0.76 1.3-1.1 1.5-0.73 1.5 2.4 0 2.6-0.44 3.6-1.5 3.6-1.2 0-1.5 1.8-1.5 10v10l18-0.58 0.29-9.3zm-16-0.23v-7h6.5c5.8 0 6.5 0.21 6.5 2 0 2-1.7 2.5-6.4 2-1.6-0.17-1.8 0.26-1.2 3 0.35 1.8 0.64 3.8 0.64 4.6s0.45 1.4 1 1.4 1-1.4 1-3.1c0-1.8 0.42-2.8 1-2.4 0.55 0.34 1 1.7 1 3.1 0 3.3 1.8 3.1 2.3-0.31 0.39-2.6 0.43-2.5 0.57 0.5l0.15 3.2h-13zm3.9-1.2c0.067-1-0.58-1.8-1.5-1.8-1.3 0-1.5 0.65-1 3.1 0.34 1.7 0.68 3.9 0.74 4.8 0.13 1.8 1.6-3.3 1.8-6.1zm-0.8-12c0.043-2.1 0.31-3.2 0.58-2.5s1.3 1.3 2.2 1.3c0.92 0.017 2.5 1.1 3.5 2.5l1.8 2.5h-4c-4 0-4-0.021-4-3.8z" fill="#a9abf0"/>
 <path d="m300 634c-1.2-1.3-2.1-2.5-2.1-2.8s-1.9-3.4-4.2-6.8-4.7-6.9-5.3-7.9-2-3.2-3.2-5.2c-3.3-5.2-3.1-15 0.3-20 3.3-5.1 7.2-7.8 12-8.6 5.6-0.95 13 0.26 16 2.6 1.3 1.1 2.7 2.3 3.3 2.6 2 1.3 5.5 10 5.5 14 0 3.7-2.5 9.6-6.4 15-1.2 1.6-2.6 3.7-3.1 4.6-2.2 3.5-6.9 11-8.5 13l-1.7 2.2zm11-25c0.24-7.5 0.012-9.2-1.4-10-1.6-1.1-1.6-1.4-0.042-3.7 2-3.1 2.1-4 0.14-3.2-1.1 0.43-1.5-0.17-1.5-2.5 0-4.1-2.3-3.3-3.1 1.2-0.34 1.9-0.68 2.9-0.75 2.2s-0.49-1.1-0.94-1c-0.44 0.14-2-1.1-3.5-2.7-2.6-2.8-2.8-2.8-4.7-1.1-2.4 2.2-2.7 5.7-0.5 4.9 1.1-0.44 1.5 0.18 1.5 2.5 0 2-0.5 3.1-1.4 3.1-1.8 0-2.6 3.1-2.6 10 0 10-0.056 10 9.8 9.8l8.6-0.29zm-16-1v-6.5h6.5c5.8 0 6.5 0.21 6.5 2 0 1.7-0.67 2-4 2h-4v4.5c0 2.6-0.46 4.5-1.1 4.5-0.75 0-0.9-1.5-0.44-4.5 0.57-3.8 0.42-4.5-0.99-4.5-1.4 0-1.6 0.83-1.3 4.5 0.2 2.5 0.017 4.5-0.4 4.5-0.42 0-0.76-2.9-0.76-6.5zm8 4c0-1.4 0.17-2.5 0.38-2.5 0.21 0 0.6 1.1 0.86 2.5s0.09 2.5-0.38 2.5c-0.47 0-0.86-1.1-0.86-2.5zm-5-16c0-2.4 0.34-2.8 2.2-2.4 1.2 0.24 3.1 1.5 4 2.9l1.8 2.4h-4c-3.8 0-4-0.18-4-2.9z" fill="#8b8df0"/>
 <path d="m300 634c-1.2-1.3-2.1-2.5-2.1-2.8s-1.9-3.4-4.2-6.8-4.7-6.9-5.3-7.9-2-3.2-3.2-5.2c-3.3-5.2-3.1-15 0.3-20 3.3-5.1 7.2-7.8 12-8.6 5.6-0.95 13 0.26 16 2.6 1.3 1.1 2.7 2.3 3.3 2.6 2 1.3 5.5 10 5.5 14 0 3.7-2.5 9.6-6.4 15-1.2 1.6-2.6 3.7-3.1 4.6-2.2 3.5-6.9 11-8.5 13l-1.7 2.2zm11-18c0.57-1.1 1-5.1 1-8.9 0-6-0.3-7.2-2.1-8.5-2-1.4-2.1-1.6-0.5-4 2-3.1 2.1-4 0.15-3.2-1.1 0.43-1.5-0.17-1.5-2.5 0-4.1-2.3-3.3-3.1 1.2-0.34 1.9-0.68 2.9-0.75 2.2s-0.6-1.2-1.2-1.2-2.2-1.2-3.5-2.7c-2.4-2.6-2.5-2.6-4.5-0.85-2.4 2.2-2.7 5.7-0.5 4.9 1.1-0.44 1.5 0.18 1.5 2.5 0 2-0.5 3.1-1.4 3.1-1.8 0-2.6 3.1-2.6 10 0 10-0.012 10 9.6 10 7.2 0 8.5-0.26 9.4-1.9zm-16-4.6c0.02-1.6 0.24-2.2 0.5-1.2s0.24 2.3-0.037 3c-0.27 0.68-0.48-0.12-0.46-1.8zm4-0.5c0-1.9 0.21-2.7 0.46-1.8 0.25 0.96 0.25 2.5 0 3.5-0.25 0.96-0.46 0.18-0.46-1.8zm4 0.5c0.02-1.6 0.24-2.2 0.5-1.2s0.24 2.3-0.037 3c-0.27 0.68-0.48-0.12-0.46-1.8zm-5.9-6.3c-1.4-0.21-2.2-1-2.2-2.2 0-1.7 0.74-1.9 6.5-1.9 5.7 0 6.5 0.23 6.5 1.9 0 1.5-0.86 2-4.2 2.2-2.3 0.19-5.3 0.21-6.5 0.031zm0.75-10c0-2.4 0.34-2.8 2.2-2.4 1.2 0.24 3.1 1.5 4 2.9l1.8 2.4h-4c-3.8 0-4-0.18-4-2.9z" fill="#7e81f2"/>
 <path d="m300 634c-1.2-1.3-2.1-2.5-2.1-2.8s-1.9-3.4-4.2-6.8-4.7-6.9-5.3-7.9-2-3.2-3.2-5.2c-3.3-5.2-3.1-15 0.3-20 3.3-5.1 7.2-7.8 12-8.6 5.6-0.95 13 0.26 16 2.6 1.3 1.1 2.7 2.3 3.3 2.6 2 1.3 5.5 10 5.5 14 0 3.7-2.5 9.6-6.4 15-1.2 1.6-2.6 3.7-3.1 4.6-2.2 3.5-6.9 11-8.5 13l-1.7 2.2zm11-17c1.2-1.2 1.7-14 0.59-17-0.33-0.87-1.2-1.6-2-1.6-1.9 0-1.7-1.3 0.6-3.8 1.9-2 1.2-4.1-0.99-2.7-0.58 0.36-1-0.66-1-2.4 0-2.1-0.49-3.1-1.5-3.1-1 0-1.5 1-1.5 3 0 2.6-0.26 2.9-1.8 2.1-0.96-0.52-2.8-2-4.1-3.2l-2.4-2.3-2.5 2.9c-2.1 2.4-2.2 3-1 3.9 2 1.5 3 5.6 1.3 5.6-1.9 0-2.5 2.4-2.5 10 0 10-0.13 10 9.4 10 5 0 8.7-0.46 9.4-1.2zm-16-5.3c0.02-1.6 0.24-2.2 0.5-1.2s0.24 2.3-0.037 3c-0.27 0.68-0.48-0.12-0.46-1.8zm4-0.5c0-1.9 0.21-2.7 0.46-1.8 0.25 0.96 0.25 2.5 0 3.5-0.25 0.96-0.46 0.18-0.46-1.8zm4 0.5c0.02-1.6 0.24-2.2 0.5-1.2s0.24 2.3-0.037 3c-0.27 0.68-0.48-0.12-0.46-1.8zm-5.9-6.3c-1.4-0.21-2.2-1-2.2-2.2 0-1.7 0.74-1.9 6.5-1.9 5.7 0 6.5 0.23 6.5 1.9 0 1.5-0.86 2-4.2 2.2-2.3 0.19-5.3 0.21-6.5 0.031zm0.75-10c0-2.5 0.3-2.8 2.2-2.3 2.2 0.56 4.7 2.9 4.7 4.5 0.018 0.41-1.5 0.75-3.5 0.75-3.2 0-3.5-0.25-3.5-2.9z" fill="#797abb"/>
 <path d="m300 634c-1.2-1.3-2.1-2.5-2.1-2.8s-1.9-3.4-4.2-6.8-4.7-6.9-5.3-7.9-2-3.2-3.2-5.2c-3.3-5.2-3.1-15 0.3-20 3.3-5.1 7.2-7.8 12-8.6 5.6-0.95 13 0.26 16 2.6 1.3 1.1 2.7 2.3 3.3 2.6 2 1.3 5.5 10 5.5 14 0 3.7-2.5 9.6-6.4 15-1.2 1.6-2.6 3.7-3.1 4.6-2.2 3.5-6.9 11-8.5 13l-1.7 2.2zm11-17c1.2-1.2 1.7-14 0.59-17-0.33-0.87-1.2-1.6-2-1.6-1.9 0-1.7-1.3 0.6-3.8 1.9-2 1.2-4.1-0.99-2.7-0.58 0.36-1-0.66-1-2.4 0-2.1-0.49-3.1-1.5-3.1-1 0-1.5 1-1.5 3 0 2.6-0.26 2.9-1.8 2.1-0.96-0.52-2.8-2-4.1-3.2l-2.4-2.3-2.5 2.9c-2.1 2.4-2.2 3-1 3.9 2 1.5 3 5.6 1.3 5.6-1.9 0-2.5 2.4-2.5 10 0 10-0.13 10 9.4 10 5 0 8.7-0.46 9.4-1.2zm-16-5.3c0.02-1.6 0.24-2.2 0.5-1.2s0.24 2.3-0.037 3c-0.27 0.68-0.48-0.12-0.46-1.8zm4 0c0.02-1.6 0.24-2.2 0.5-1.2s0.24 2.3-0.037 3c-0.27 0.68-0.48-0.12-0.46-1.8zm4 0c0.02-1.6 0.24-2.2 0.5-1.2s0.24 2.3-0.037 3c-0.27 0.68-0.48-0.12-0.46-1.8zm-8.2-8.5c0-1.8 0.67-2 6.5-2 6.1 0 6.5 0.15 6.5 2.2-0.012 1.8-0.2 2-1 0.75-0.88-1.3-1.1-1.3-2 0s-1.1 1.3-2.1 0c-0.81-1.1-1.2-1.2-1.6-0.25-0.28 0.69-1.1 1.2-1.8 1.2s-1.6-0.56-1.8-1.2c-0.4-1-0.52-1-0.58 0-0.13 2.1-2.1 1.4-2.1-0.75zm3-7.9c0-2.5 0.3-2.8 2.2-2.3 2.2 0.56 4.7 2.9 4.7 4.5 0.018 0.41-1.5 0.75-3.5 0.75-3.2 0-3.5-0.25-3.5-2.9z" fill="#575ae4"/>
 <path d="m300 634c-1.2-1.3-2.1-2.5-2.1-2.8s-1.9-3.4-4.2-6.8-4.7-6.9-5.3-7.9-2-3.2-3.2-5.2c-3.3-5.2-3.1-15 0.3-20 3.3-5.1 7.2-7.8 12-8.6 5.6-0.95 13 0.26 16 2.6 1.3 1.1 2.7 2.3 3.3 2.6 2 1.3 5.5 10 5.5 14 0 3.7-2.5 9.6-6.4 15-1.2 1.6-2.6 3.7-3.1 4.6-2.2 3.5-6.9 11-8.5 13l-1.7 2.2zm11-17c0.74-0.74 1.2-4.4 1.2-9.6 0-7.6-0.2-8.4-2-8.9-2.5-0.66-2.5-1.1 0.21-4l2.2-2.4-2.2-0.58c-1.5-0.39-2.2-1.3-2.2-3 0-3.7-2.8-3-3.2 0.82l-0.31 3.2-3.7-3.2c-3.3-2.9-3.9-3.1-5.8-2-1.1 0.71-2.1 1.6-2.1 2s-0.27 1.4-0.61 2.3c-0.39 1-0.065 1.6 0.88 1.6 2.3 0 2.8 4.7 0.57 5.3-1.6 0.42-1.8 1.5-1.8 8.5 0 11-0.24 11 9.4 11 5 0 8.7-0.46 9.4-1.2zm-16-5.3c0.02-1.6 0.24-2.2 0.5-1.2s0.24 2.3-0.037 3c-0.27 0.68-0.48-0.12-0.46-1.8zm4 0c0.02-1.6 0.24-2.2 0.5-1.2s0.24 2.3-0.037 3c-0.27 0.68-0.48-0.12-0.46-1.8zm4 0c0.02-1.6 0.24-2.2 0.5-1.2s0.24 2.3-0.037 3c-0.27 0.68-0.48-0.12-0.46-1.8zm-8.2-8.1c-2e-3 -1.7 0.69-1.8 6.5-1.5 3.6 0.18 6.5 0.73 6.5 1.2s-0.63 0.64-1.4 0.35c-0.77-0.3-1.7-8e-3 -2.1 0.64-0.54 0.88-0.93 0.85-1.5-0.12-0.64-1-1.1-1-2.3-0.058-1.1 0.88-1.7 0.92-2.2 0.14-0.49-0.79-1.1-0.77-2.1 0.074-1.1 0.94-1.4 0.8-1.4-0.7zm3-8.2c0-2.5 0.32-2.8 2.4-2.4 1.3 0.25 2.9 1.5 3.5 2.9 1 2.3 0.93 2.4-2.4 2.4-3.2 0-3.5-0.26-3.5-2.9z" fill="#3236ea"/>
</svg>
