<?xml version="1.0" encoding="UTF-8"?>
<!-- Created with Inkscape (http://www.inkscape.org/) -->
<svg width="750" height="750" version="1.1" viewBox="0 0 750 750" xmlns="http://www.w3.org/2000/svg" xmlns:cc="http://creativecommons.org/ns#" xmlns:dc="http://purl.org/dc/elements/1.1/" xmlns:rdf="http://www.w3.org/1999/02/22-rdf-syntax-ns#">
 <metadata>
  <rdf:RDF>
   <cc:Work rdf:about="">
    <dc:format>image/svg+xml</dc:format>
    <dc:type rdf:resource="http://purl.org/dc/dcmitype/StillImage"/>
    <dc:title/>
   </cc:Work>
  </rdf:RDF>
 </metadata>
 <path d="m0 375v-375h750v750h-750z" fill="#fff"/>
 <path d="m54 127v-78l16-0.58 0.6-12h156l0.66 35c0.36 19 0.66 56 0.66 82l2e-3 47-4.5-0.51c-3-0.34-4.5-0.12-4.5 0.62 0 0.69-1.9 1.1-5 1.1-2.8 0-5-0.45-5-1 0-0.63-7.2-1-20-1-13 0-20 0.35-20 1.1 0 0.74-16 0.84-52 0.35l-52-0.71-0.56 2.2c-0.47 1.8-1.3 2.2-5.2 2.2h-4.6z" fill="#edd7fa"/>
</svg>
