<?xml version="1.0" encoding="UTF-8"?>
<!-- Created with Inkscape (http://www.inkscape.org/) -->
<svg width="750" height="750" version="1.1" viewBox="0 0 750 750" xmlns="http://www.w3.org/2000/svg" xmlns:cc="http://creativecommons.org/ns#" xmlns:dc="http://purl.org/dc/elements/1.1/" xmlns:rdf="http://www.w3.org/1999/02/22-rdf-syntax-ns#">
 <metadata>
  <rdf:RDF>
   <cc:Work rdf:about="">
    <dc:format>image/svg+xml</dc:format>
    <dc:type rdf:resource="http://purl.org/dc/dcmitype/StillImage"/>
    <dc:title/>
   </cc:Work>
  </rdf:RDF>
 </metadata>
 <path d="m-3.1e-7 375v-375h750v750h-750z" fill="#fefefe"/>
 <path d="m204 715c-1.6-0.16-12-0.8-24-1.4-20-1.1-24-1.6-37-4.5-3.3-0.76-10-2.1-15-3.1s-9.4-2.1-10-2.6-2.5-0.86-4.3-0.86-4.8-0.74-6.6-1.6c-5.8-3-6.6-3.4-8.1-3.4-0.83 0-4.3-1.1-7.8-2.4-9-3.5-9-3.4-12-5.5-1.6-1.1-3.6-1.9-4.3-2-2.5-0.14-20-11-24-16-3.5-3.5-5.3-4.5-8.5-4.7l-4-0.31v-9l17-1 1-83 46-0.24c33-0.17 47-0.58 49-1.4 1.4-0.71 3.1-0.82 4.5-0.3 1.3 0.46 16 1.1 33 1.4l31 0.54 0.74 18c0.41 10 1.2 20 1.8 21 1.3 3 1.3 13-2e-3 14-0.66 0.66-0.92 14-0.75 38l0.26 37 2.5 0.59c2.3 0.55 2.5 1 2.5 6.5v6l-10 0.11c-5.5 0.058-11-0.024-13-0.18z" fill="#f2c4c4"/>
</svg>
