<?xml version="1.0" encoding="UTF-8"?>
<!-- Created with Inkscape (http://www.inkscape.org/) -->
<svg width="750" height="750" version="1.1" viewBox="0 0 750 750" xmlns="http://www.w3.org/2000/svg" xmlns:cc="http://creativecommons.org/ns#" xmlns:dc="http://purl.org/dc/elements/1.1/" xmlns:rdf="http://www.w3.org/1999/02/22-rdf-syntax-ns#">
 <metadata>
  <rdf:RDF>
   <cc:Work rdf:about="">
    <dc:format>image/svg+xml</dc:format>
    <dc:type rdf:resource="http://purl.org/dc/dcmitype/StillImage"/>
    <dc:title/>
   </cc:Work>
  </rdf:RDF>
 </metadata>
 <path d="m2.9e-6 375v-375h750v750h-750z" fill="#fff"/>
 <path d="m434 543c-0.82-0.97-3.5-4-6-6.6s-4.5-5-4.5-5.2-1.1-1.6-2.5-3l-2.5-2.7 2.2-1.5c1.2-0.85 3-2.2 3.9-3.1 0.93-0.86 3-2.6 4.6-3.8 1.6-1.2 4.2-3.3 5.8-4.6l2.9-2.4 4.2 4.1c2.3 2.3 5.8 5.2 7.7 6.6s4.4 3.8 5.6 5.5l2.1 3-2 2.1c-1.3 1.4-2.8 2-4.4 1.7-1.7-0.32-2.7 0.16-3.5 1.6-1.6 3-5.7 6.9-9.1 8.6-2.7 1.4-3.1 1.4-4.4-0.25z" fill="#cccdac"/>
</svg>
