<?xml version="1.0" encoding="UTF-8"?>
<!-- Created with Inkscape (http://www.inkscape.org/) -->
<svg width="750" height="750" version="1.1" viewBox="0 0 750 750" xmlns="http://www.w3.org/2000/svg" xmlns:cc="http://creativecommons.org/ns#" xmlns:dc="http://purl.org/dc/elements/1.1/" xmlns:rdf="http://www.w3.org/1999/02/22-rdf-syntax-ns#">
 <metadata>
  <rdf:RDF>
   <cc:Work rdf:about="">
    <dc:format>image/svg+xml</dc:format>
    <dc:type rdf:resource="http://purl.org/dc/dcmitype/StillImage"/>
    <dc:title/>
   </cc:Work>
  </rdf:RDF>
 </metadata>
 <path d="m-2.6e-7 375v-375h750v750h-750z" fill="#fff"/>
 <path d="m514 709c-8e-3 -4-0.37-7.8-0.8-8.5-0.59-0.93-8.4-1.3-31-1.5-26-0.23-30-0.47-30-1.8-0.014-0.82-0.27-2-0.56-2.5-1-2-0.95-35 0.11-37 1-1.9 2.3-2 34-2h33v-39h-46v-10c0-8.2 0.27-10 1.5-10s1.5-1.8 1.5-10v-10h20c19 0 20-0.084 21-2 0.52-2 1.4-2 85-2h85l0.52 84 14 0.59-0.53 58-186 0.51-0.015-7.3z" fill="#dff791"/>
</svg>
