<?xml version="1.0" encoding="UTF-8"?>
<!-- Created with Inkscape (http://www.inkscape.org/) -->
<svg width="750" height="750" version="1.1" viewBox="0 0 750 750" xmlns="http://www.w3.org/2000/svg" xmlns:cc="http://creativecommons.org/ns#" xmlns:dc="http://purl.org/dc/elements/1.1/" xmlns:rdf="http://www.w3.org/1999/02/22-rdf-syntax-ns#">
 <metadata>
  <rdf:RDF>
   <cc:Work rdf:about="">
    <dc:format>image/svg+xml</dc:format>
    <dc:type rdf:resource="http://purl.org/dc/dcmitype/StillImage"/>
    <dc:title/>
   </cc:Work>
  </rdf:RDF>
 </metadata>
 <path d="m-4.9e-6 375v-375h750v750h-750z" fill="#fff"/>
 <path d="m401 552c-2.8-5.9-5.5-11-5.9-12-0.64-1.1 0.69-2.2 5.8-4.7 3.6-1.8 8.1-4.3 10-5.8 3.2-2.4 3.6-2.5 5.2-0.94 1 0.91 1.8 2 1.8 2.5 0 0.94 3 4.5 10 12 5.3 5.8 6.2 9.4 2.3 9.4-1.3 0-2.7 0.5-3.1 1.1-0.48 0.78-0.92 0.73-1.5-0.18-0.61-0.98-2.8-0.27-9.1 3-4.6 2.3-8.8 4.7-9.5 5.2-0.83 0.69-2.6-2.1-6.3-9.8z" fill="#cdcead"/>
</svg>
