<?xml version="1.0" encoding="UTF-8"?>
<!-- Created with Inkscape (http://www.inkscape.org/) -->
<svg width="750" height="750" version="1.1" viewBox="0 0 750 750" xmlns="http://www.w3.org/2000/svg" xmlns:cc="http://creativecommons.org/ns#" xmlns:dc="http://purl.org/dc/elements/1.1/" xmlns:rdf="http://www.w3.org/1999/02/22-rdf-syntax-ns#" xmlns:xlink="http://www.w3.org/1999/xlink">
 <metadata>
  <rdf:RDF>
   <cc:Work rdf:about="">
    <dc:format>image/svg+xml</dc:format>
    <dc:type rdf:resource="http://purl.org/dc/dcmitype/StillImage"/>
    <dc:title/>
   </cc:Work>
  </rdf:RDF>
 </metadata>
 <image width="750" height="750" image-rendering="optimizeSpeed" preserveAspectRatio="none" xlink:href="/home/jeff/Dev/Widget-And-Small-App-Projects/dulibmap/assets/img/map/slide/tmp/bottom/bottom_gfeuc.png"/>
 <path d="m345 148c-8.5-0.38-18-1.2-21-1.8-3-0.59-10-1.8-16-2.6s-12-2-15-2.6c-2.8-0.59-5.6-1.1-6.2-1.2-1.9-0.19-1.7-7.8 0.24-7.8 1.3 0 1.5-6.1 1.8-47 0.14-26 0.6-47 1-46 0.41 1.7e-4 39 3.1e-4 85 3.1e-4h84v46c0 40 0.2 46 1.5 47 0.97 0.37 1.5 1.9 1.5 4.3v3.8l-6.2 1.2c-3.4 0.68-11 1.9-16 2.7-5.2 0.81-12 1.9-15 2.5-13 2.3-50 3.1-80 1.8z" fill="#92d8f7"/>
</svg>
