<?xml version="1.0" encoding="UTF-8"?>
<!-- Created with Inkscape (http://www.inkscape.org/) -->
<svg width="750" height="750" version="1.1" viewBox="0 0 750 750" xmlns="http://www.w3.org/2000/svg" xmlns:cc="http://creativecommons.org/ns#" xmlns:dc="http://purl.org/dc/elements/1.1/" xmlns:rdf="http://www.w3.org/1999/02/22-rdf-syntax-ns#" xmlns:xlink="http://www.w3.org/1999/xlink">
 <metadata>
  <rdf:RDF>
   <cc:Work rdf:about="">
    <dc:format>image/svg+xml</dc:format>
    <dc:type rdf:resource="http://purl.org/dc/dcmitype/StillImage"/>
    <dc:title/>
   </cc:Work>
  </rdf:RDF>
 </metadata>
 <image width="750" height="750" image-rendering="optimizeSpeed" preserveAspectRatio="none" xlink:href="/home/jeff/Dev/Widget-And-Small-App-Projects/dulibmap/assets/img/map/slide/tmp/bottom/bottom_frr.png"/>
 <path d="m131 496c0.32-0.51 0.12-1.2-0.44-1.6-0.65-0.4-1-11-1-30 0-19-0.37-30-1-30-0.55-0.34-1-2.6-1-5s0.45-4.7 1-5 1-1.8 1-3.2c0-1.4 0.79-3.2 1.8-4 2.2-1.7 18-9.3 19-9.3 0.53 0 2.7-0.87 4.8-1.9 2.1-1.1 7.4-2.7 12-3.7s8.8-2.1 9.7-2.6c2.2-1.1 30-4 31-3.3 0.54 0.33 0.92 15 0.92 35v34h-3c-2.3 0-3 0.44-3 2 0 1.7 0.67 2 4 2h4v14l-62 0.53-0.3 4.8c-0.28 4.3-0.54 4.8-2.8 4.8-1.4 0-2.7 0.68-3.1 1.5-0.41 1.1-2.1 1.5-6 1.5-3.1 0-5.2-0.4-4.9-0.93z" fill="#fcdd88"/>
</svg>
