<?xml version="1.0" encoding="UTF-8"?>
<!-- Created with Inkscape (http://www.inkscape.org/) -->
<svg width="750" height="750" version="1.1" viewBox="0 0 750 750" xmlns="http://www.w3.org/2000/svg" xmlns:cc="http://creativecommons.org/ns#" xmlns:dc="http://purl.org/dc/elements/1.1/" xmlns:rdf="http://www.w3.org/1999/02/22-rdf-syntax-ns#" xmlns:xlink="http://www.w3.org/1999/xlink">
 <metadata>
  <rdf:RDF>
   <cc:Work rdf:about="">
    <dc:format>image/svg+xml</dc:format>
    <dc:type rdf:resource="http://purl.org/dc/dcmitype/StillImage"/>
    <dc:title/>
   </cc:Work>
  </rdf:RDF>
 </metadata>
 <image width="750" height="750" image-rendering="optimizeSpeed" preserveAspectRatio="none" xlink:href="/home/jeff/Dev/Widget-And-Small-App-Projects/dulibmap/assets/img/map/slide/tmp/bottom/bottom_access_elevator_pin.png"/>
 <path d="m294 683c-2.4-3.6-4.9-7.3-5.5-8.2-0.57-0.91-2.8-4.3-4.9-7.6-5-7.7-5.7-13-2.5-20 3-6 6.4-8.9 12-11 8.5-2.4 17 0.38 22 7.4 2.8 3.8 3.1 5.2 3.1 11 0 5.3-0.45 7.3-2.2 9.8-1.2 1.7-2.7 3.9-3.2 4.8s-2.9 4.5-5.2 7.9-4.2 6.5-4.2 6.9-1 1.7-2.3 2.9l-2.3 2.2zm14-21 0.29-9.2h-9.4c-11 0-11-0.16-11 9.1 0 9.5 0.53 10 11 9.6l8.7-0.29zm-16-0.5-0.18-6.8h13l-0.18 6.8c-0.15 5.6-0.24 5.9-0.55 2-0.37-4.7-0.43-4.8-3.8-4.8-3.4 0-3.4 0.037-3.4 4.5 0 2.6-0.46 4.5-1.1 4.5-0.75 0-0.9-1.5-0.44-4.5 0.55-3.6 0.39-4.5-0.83-4.5-1.1 0-1.6 1.4-1.9 4.8-0.31 3.9-0.41 3.6-0.55-2zm8 3.8c0.02-1.6 0.24-2.2 0.5-1.2s0.24 2.3-0.037 3c-0.27 0.68-0.48-0.12-0.46-1.8zm-5.2-17c0-2.2 0.21-2.4 2.2-1.3 1.2 0.64 3.2 2 4.3 3 2 1.8 2.1 1.8 4.2-0.63 3.1-3.6 2.6-6.5-0.62-3.3-0.93 0.93-1.2 0.36-1.2-2.6 0-2.3-0.4-3.5-1-3.1-0.55 0.34-1 2.1-1 3.8-0.011 2.2-0.28 2.8-0.89 1.8-0.48-0.76-1.4-1.1-2-0.69-0.61 0.38-1.1 0.17-1.1-0.46s-1-2-2.2-2.9c-2.2-1.7-2.3-1.7-4.5 0.34-2.9 2.7-3 5-0.29 4.1 1.7-0.54 2-0.18 2 2.5 0 1.8 0.41 2.9 1 2.5 0.55-0.34 1-1.7 1-3.1z" fill="#3438ea"/>
</svg>
