<?xml version="1.0" encoding="UTF-8"?>
<!-- Created with Inkscape (http://www.inkscape.org/) -->
<svg width="750" height="750" version="1.1" viewBox="0 0 750 750" xmlns="http://www.w3.org/2000/svg" xmlns:cc="http://creativecommons.org/ns#" xmlns:dc="http://purl.org/dc/elements/1.1/" xmlns:rdf="http://www.w3.org/1999/02/22-rdf-syntax-ns#" xmlns:xlink="http://www.w3.org/1999/xlink">
 <metadata>
  <rdf:RDF>
   <cc:Work rdf:about="">
    <dc:format>image/svg+xml</dc:format>
    <dc:type rdf:resource="http://purl.org/dc/dcmitype/StillImage"/>
    <dc:title/>
   </cc:Work>
  </rdf:RDF>
 </metadata>
 <image width="750" height="750" image-rendering="optimizeSpeed" preserveAspectRatio="none" xlink:href="/home/jeff/Dev/Widget-And-Small-App-Projects/dulibmap/assets/img/map/slide/tmp/bottom/bottom_access_restroom1_pin.png"/>
 <path d="m635 259c-1-1.5-2.3-3.5-2.9-4.4-0.56-0.92-2.9-4.5-5.3-7.9s-4.2-6.3-4.2-6.5-1.1-2-2.5-4c-1.8-2.6-2.5-5-2.5-8.4s0.71-5.8 2.5-8.4c1.4-2 2.5-4.1 2.5-4.7s1-1.5 2.2-2c1.2-0.57 3.8-1.9 5.8-3 1.9-1.1 5.1-1.9 7-1.9s5.1 0.87 7 1.9c1.9 1.1 4.5 2.4 5.8 3 1.2 0.57 2.2 1.5 2.2 2s1.1 2.6 2.5 4.7c1.8 2.6 2.5 5 2.5 8.4s-0.71 5.8-2.5 8.4c-1.4 2-2.5 3.8-2.5 4s-1.9 3.1-4.2 6.5-4.7 6.9-5.3 7.9c-2.6 4.4-4.8 7.2-5.5 7.2-0.42 0-1.6-1.2-2.6-2.8zm5.1-10c0.34-0.55 2.1-1 3.8-1.1 1.8-0.043 2.5-0.34 1.7-0.65s-1.8-1.1-2.2-1.7c-0.5-0.75-0.74-0.68-0.75 0.21-8e-3 0.72-0.47 1-1 0.69s-1-0.11-1 0.5c0 0.68-1.5 1-3.8 0.81-3.3-0.27-3.7-0.62-3.7-2.8 0.054-1.4 0.46-3.4 0.9-4.5 0.58-1.5 0.49-1.7-0.33-0.97-2.1 1.9-2.5 7-0.69 8.8 1.8 1.8 6.1 2.2 7 0.66zm2.5-5.9c0-0.52-1.5-1.1-3.2-1.3l-3.2-0.36 5-2.3-2.3-0.063c-2.1-0.056-2.3-0.41-1.7-3.1 0.53-2.4 0.33-3-1.1-3-1.4 0-1.6 0.64-1.1 3.8 0.34 2.1 0.62 4.3 0.63 4.9 6e-3 0.65 1.5 1.4 3.3 1.6 1.8 0.22 3.4 0.48 3.5 0.56 0.14 0.088 0.25-0.26 0.25-0.78zm2-13c0.7 3.7 1.1 3.2 2.7-3.8 0.55-2.3 0.67-4.2 0.27-4.2s-0.51-1.1-0.24-2.5c0.37-1.9 0.06-2.5-1.3-2.5-1.4 0-1.5-0.27-0.62-1.2 1.8-1.8 1.5-2.8-0.92-2.8-1.6 0-2 0.47-1.6 2 0.28 1.1-0.066 2.4-0.78 3-2 1.6-2.7 5.3-0.91 4.6 1.2-0.45 1.2-0.17 0.39 1.4-0.72 1.3-0.73 2-0.023 2 0.57 0 1.1 1.7 1.2 3.8l0.16 3.8 1-7 0.66 3.5zm-12-4.9c0.56-5.4 0.39-6.8-0.93-7.8-1.1-0.77-1.2-1.4-0.53-1.8 1.4-0.87 0.36-2.5-1.6-2.5-0.91 0-1.4 0.7-1.2 1.8 0.2 0.96-0.24 2.2-0.98 2.8-1 0.77-1.2 2.7-0.66 7.6 0.61 6 0.89 6.6 2.9 6.6s2.3-0.62 2.9-6.6z" fill="#3237ea"/>
</svg>
